<svg version="1.1" xmlns="http://www.w3.org/2000/svg" viewBox="0 0 6682.666015625 1091.333024715037" width="13365.33203125" height="2182.666049430074">
  <!-- svg-source:excalidraw -->
  
  <defs>
    <style>
      @font-face {
        font-family: "Virgil";
        src: url("https://excalidraw.com/Virgil.woff2");
      }
      @font-face {
        font-family: "Cascadia";
        src: url("https://excalidraw.com/Cascadia.woff2");
      }
    </style>
  </defs>
  <rect x="0" y="0" width="6682.666015625" height="1091.333024715037" fill="#ffffff"></rect><g stroke-linecap="round" transform="translate(10 145.80372784003703) rotate(0 626.2285156249999 467.314453125)"><path d="M0.67 0.15 C304.72 3.35, 609.95 4.11, 1252.25 0.38 M-0.07 0.02 C284.14 1.05, 568.4 1.11, 1252.47 -0.17 M1252.25 -0.53 C1252.61 276.83, 1253.39 553.74, 1252.04 935.25 M1252.53 -0.38 C1251.43 198.49, 1251.05 396.27, 1252.35 934.75 M1251.72 935.28 C867.62 931.99, 482.31 932.15, 0.05 935.28 M1252.72 934.28 C848.66 934.77, 444.76 934.86, 0.19 934.6 M-0.73 933.89 C1.2 624.43, 0.51 312.8, -0.43 -0.53 M-0.09 934.34 C3.18 647.83, 3.42 361.41, -0.03 -0.07" stroke="#000000" stroke-width="1" fill="none"></path></g><g stroke-linecap="round" transform="translate(10.79296875 149.82716534003703) rotate(0 623.84765625 48.705078125)"><path d="M-0.45 -0.23 C409.38 2.83, 817.85 3.49, 1247.22 0.66 M0.22 0.17 C379.23 -2.22, 757.92 -2.51, 1247.49 0 M1249.27 1.55 C1245.5 37.45, 1249.11 75.74, 1246.8 95.74 M1248.26 -0.44 C1249.44 22.98, 1248.49 44.87, 1248.05 96.43 M1247.95 97.68 C845.17 101.32, 442.25 100.54, -0.8 97.33 M1247.53 97.46 C980.86 100.54, 713.28 99.93, -0.26 97.57 M-0.45 96.96 C2.33 62.36, 0.7 24.99, 1.85 0.07 M-0.72 97.43 C-0.08 59.74, -0.45 20.08, 0.61 0.11" stroke="#000000" stroke-width="1" fill="none"></path></g><g stroke-linecap="round" transform="translate(13.46875 153.62794659003703) rotate(0 89.3203125 47.158203125)"><path d="M0.53 0.53 C49.43 0.05, 98.7 -0.37, 179.16 -0.05 M0.67 0.99 C49.46 -1.38, 100.5 -2.58, 178.46 0.68 M180.44 1.58 C180.7 26.66, 179.54 52.19, 177.7 95.2 M177.92 -0.23 C177.82 32.94, 177.18 66.17, 178.88 94.53 M179.06 94.94 C114.19 94.98, 53.63 92.22, 1.41 92.56 M178.43 94.34 C120.41 92.7, 60.26 91.89, -0.86 94.65 M1.03 93.24 C1.09 61.24, 1.8 32.47, 0.55 1.92 M-0.59 94.42 C0.69 64, -0.2 33.13, 0.22 0.92" stroke="#000000" stroke-width="1" fill="none"></path></g><g transform="translate(76.9140625 187.50685284003703) rotate(0 23 12.5)"><text x="0" y="18" font-family="Virgil, Segoe UI Emoji" font-size="20px" fill="#000000" text-anchor="start" style="white-space: pre;" direction="ltr">Logo</text></g><g stroke-linecap="round" transform="translate(692.75 175.95216534003703) rotate(0 82.259765625 17.5)"><path d="M0.12 -1.93 C39.61 1.24, 79.82 0.03, 162.58 -1.51 M-0.95 0.46 C34.01 -1.38, 67.23 -1.2, 165.04 0.56 M163.44 -0.55 C162.56 12.45, 166.02 23.31, 165.42 34.32 M165.31 -0.48 C165.42 13.48, 164.52 24.96, 164.59 35.7 M164.93 36.92 C98.88 36.68, 32.9 37.93, -0.54 34.89 M164.84 35.08 C111.52 34.67, 58.73 35.15, -0.89 35.92 M1.33 34.65 C0.69 19.84, -1.74 8.14, -0.42 -0.67 M-0.86 35.92 C0.3 28.19, 0.37 20.46, 0.41 -0.82" stroke="#000000" stroke-width="1" fill="none"></path></g><g transform="translate(736.509765625 180.95216534003703) rotate(0 38.5 12.5)"><text x="38.5" y="18" font-family="Virgil, Segoe UI Emoji" font-size="20px" fill="#000000" text-anchor="middle" style="white-space: pre;" direction="ltr">Articles</text></g><g stroke-linecap="round" transform="translate(870.962890625 176.13575909003703) rotate(0 82.259765625 17.5)"><path d="M-0.15 -0.86 C39.02 1.59, 76.23 2.12, 164.73 0.76 M0.85 -0.49 C43.93 1.54, 87.45 1.76, 163.66 -0.24 M166.34 -1.39 C164.23 10.42, 165.21 24.44, 163.85 34.13 M164.42 -0.61 C165.51 14.5, 164.09 27.87, 165.14 34.71 M162.77 33.73 C128.7 35.27, 93.94 36.16, -0.65 36.35 M163.87 35.74 C117.86 35.83, 70.88 34.66, -0.34 34.8 M-1.8 36.8 C0.9 22.82, -0.49 11.48, 0.78 -1.71 M0.47 35.88 C0.37 23.03, -0.57 10.99, 0.6 -0.31" stroke="#000000" stroke-width="1" fill="none"></path></g><g transform="translate(924.22265625 181.13575909003703) rotate(0 29 12.5)"><text x="29" y="18" font-family="Virgil, Segoe UI Emoji" font-size="20px" fill="#000000" text-anchor="middle" style="white-space: pre;" direction="ltr">Users</text></g><g stroke-linecap="round" transform="translate(1058.123046875 176.46779034003703) rotate(0 82.259765625 17.5)"><path d="M1.55 0.84 C35.21 -1.29, 68.9 -0.61, 165.21 -1.95 M-0.7 -0.6 C36.42 1.32, 72.66 0.1, 165.25 -0.19 M162.97 -1.97 C165.75 11.89, 165.13 22.96, 166.32 34.99 M165.36 -0.7 C165.56 8.53, 165.46 16.46, 164.18 35.88 M165.7 36.31 C125.75 35.25, 88.69 36.28, 1.11 33.51 M163.94 34.51 C115.51 33.8, 65.66 33.64, -0.58 34.69 M-0.81 34.59 C-0.33 22.46, 2.16 12.5, -1.23 -1.26 M-0.23 34.16 C-0.89 22.78, 0.66 10.18, -0.98 0.08" stroke="#000000" stroke-width="1" fill="none"></path></g><g transform="translate(1108.3828125 181.46779034003703) rotate(0 32 12.5)"><text x="32" y="18" font-family="Virgil, Segoe UI Emoji" font-size="20px" fill="#000000" text-anchor="middle" style="white-space: pre;" direction="ltr">Topics</text></g><g stroke-linecap="round" transform="translate(344.76171875 346.737321590037) rotate(0 113.107421875 77.6484375)"><path d="M-1.4 -1 C65.69 -1.17, 131.31 -0.76, 227.88 -1.49 M-0.8 0.78 C46.11 -0.05, 92.7 0.14, 225.73 -0.57 M227.71 -1.85 C228.71 38.84, 227.31 83.05, 224.74 156.04 M225.77 0.22 C224.13 38, 224.56 74.38, 226.57 154.4 M225.02 156.9 C136.37 154.22, 47.45 156.29, 0.01 154.73 M226.6 155.77 C149.84 154.4, 72.9 153.39, -0.29 155.93 M-0.59 157.2 C0.78 104.94, 2.02 54, 2 1.07 M-0.97 155.6 C1.8 100.03, 0.37 45.78, 0.36 0.93" stroke="#000000" stroke-width="1" fill="none"></path></g><g stroke-linecap="round" transform="translate(782.427734375 339.803727840037) rotate(0 113.107421875 77.6484375)"><path d="M0.02 1.1 C75.83 -0.29, 153.43 -1.1, 226.59 1.05 M-0.06 -0.31 C81.78 -0.26, 161.36 0.01, 226.5 0.01 M226.94 -1.31 C228.13 37.04, 225.92 72.76, 226.68 156.57 M225.32 0.6 C226.36 35.78, 227.28 70.31, 225.44 155.85 M225.9 155.96 C144.62 152.91, 61.32 154.29, 1.14 155.78 M226.47 155.23 C164.87 156.86, 105.02 157.89, -0.62 155.14 M-0.67 156.68 C0.18 102.92, 0.19 52.59, 1.69 -1.11 M0.32 155.59 C-1.54 105.44, -1.1 56.2, -0.91 -0.8" stroke="#000000" stroke-width="1" fill="none"></path></g><g stroke-linecap="round" transform="translate(346.865234375 552.295915340037) rotate(0 113.107421875 77.6484375)"><path d="M-1 1.12 C84.12 -0.93, 169.08 -0.2, 227.2 0.61 M0.84 0.21 C72.82 1.19, 146.95 0.72, 225.61 0.77 M226.73 1.42 C225.08 35.27, 227.24 68.77, 224.73 155.71 M226.04 0.69 C225.58 54.22, 224.06 108.75, 226.87 155.09 M227.29 153.88 C170.16 156.02, 114.35 156.53, -0.54 155.19 M225.55 154.99 C136.62 155.87, 46.11 154.99, 0.29 155.6 M0.73 154.84 C1.26 109.88, 2.22 61.05, 0.32 1.65 M-0.26 154.52 C-0.31 110.98, -1.41 67.72, -0.71 -0.21" stroke="#000000" stroke-width="1" fill="none"></path></g><g stroke-linecap="round" transform="translate(786.369140625 560.288102840037) rotate(0 113.107421875 77.6484375)"><path d="M1.12 -0.23 C68.4 1.51, 137.21 2.12, 226.83 0.41 M0.21 -0.51 C66.7 -1.61, 132.45 -2.51, 226.99 -0.71 M227.64 -1.7 C226.72 52.67, 226.47 102.92, 226.62 156.26 M226.9 0.75 C227.27 31.94, 227.7 66.08, 226.01 154.79 M224.8 155.74 C162.51 157.65, 99.34 155.97, -0.11 156.95 M225.91 155.45 C152.39 153.17, 76.96 154.08, 0.3 155.3 M-0.45 156.03 C0.08 115.64, -2.19 72.92, 1.65 -0.41 M-0.77 155.48 C-1.39 102.84, -1.27 51.5, -0.21 0.1" stroke="#000000" stroke-width="1" fill="none"></path></g><g stroke-linecap="round" transform="translate(347.994140625 756.725602840037) rotate(0 113.107421875 77.6484375)"><path d="M-0.23 0.31 C82.8 -0.22, 165.83 -0.66, 226.63 -0.12 M-0.51 0.48 C59.86 -0.46, 118.55 0.3, 225.51 0.31 M224.52 1.52 C227.08 37.7, 225.13 73.26, 227.18 153.51 M226.96 0.12 C225.17 56.48, 226.6 111.66, 225.71 155.11 M226.66 155.27 C150.69 154.18, 72.34 153.59, 1.66 155.8 M226.37 156.02 C159.49 154.45, 94.3 154.9, 0 155.01 M0.74 156.44 C1.13 96.88, -0.24 42.34, -0.41 0.64 M0.18 154.37 C-0.51 103.28, -0.31 52.66, 0.1 -0.21" stroke="#000000" stroke-width="1" fill="none"></path></g><g stroke-linecap="round" transform="translate(791.794921875 760.186540340037) rotate(0 113.107421875 77.6484375)"><path d="M0.31 0.37 C55.7 1.25, 109.92 0.67, 226.09 -0.63 M0.48 0.29 C90.08 0.56, 180.93 0.46, 226.52 -0.56 M227.73 0.47 C228.59 49.09, 227.73 102.11, 224.43 156.5 M226.34 -0.77 C227.83 44.53, 227.07 87.24, 226.03 155.69 M226.19 156.43 C144.6 155.25, 61.92 157.45, 0.51 155.16 M226.94 154.67 C175.8 155.93, 126 155.64, -0.29 155.89 M1.15 156.99 C-0.76 103.39, 2 50.43, 0.64 0.6 M-0.93 154.38 C0.4 112.03, 1 70.28, -0.21 0.35" stroke="#000000" stroke-width="1" fill="none"></path></g><g transform="translate(426.869140625 411.885759090037) rotate(0 31 12.5)"><text x="31" y="18" font-family="Virgil, Segoe UI Emoji" font-size="20px" fill="#000000" text-anchor="middle" style="white-space: pre;" direction="ltr">User 1</text></g><g transform="translate(860.03515625 404.952165340037) rotate(0 35.5 12.5)"><text x="35.5" y="18" font-family="Virgil, Segoe UI Emoji" font-size="20px" fill="#000000" text-anchor="middle" style="white-space: pre;" direction="ltr">User 2</text></g><g transform="translate(424.97265625 617.444352840037) rotate(0 35 12.5)"><text x="35" y="18" font-family="Virgil, Segoe UI Emoji" font-size="20px" fill="#000000" text-anchor="middle" style="white-space: pre;" direction="ltr">User 3</text></g><g transform="translate(864.9765625 625.436540340037) rotate(0 34.5 12.5)"><text x="34.5" y="18" font-family="Virgil, Segoe UI Emoji" font-size="20px" fill="#000000" text-anchor="middle" style="white-space: pre;" direction="ltr">User 4</text></g><g transform="translate(426.6015625 821.874040340037) rotate(0 34.5 12.5)"><text x="34.5" y="18" font-family="Virgil, Segoe UI Emoji" font-size="20px" fill="#000000" text-anchor="middle" style="white-space: pre;" direction="ltr">User 5</text></g><g transform="translate(870.40234375 825.334977840037) rotate(0 34.5 12.5)"><text x="34.5" y="18" font-family="Virgil, Segoe UI Emoji" font-size="20px" fill="#000000" text-anchor="middle" style="white-space: pre;" direction="ltr">User 6</text></g><g stroke-linecap="round" transform="translate(386.4921875 436.588884090037) rotate(0 71 30)"><path d="M-1.05 -1.28 C56.25 2.16, 111.8 -0.66, 142.54 -1.51 M0.3 0.49 C47.1 0.16, 93.31 2.02, 142.2 -0.09 M142.66 1.04 C143.49 24.24, 141.24 48.81, 142.49 58.26 M141.12 0.06 C140.83 20.99, 142.19 43.75, 141.87 59.82 M140.64 61.61 C106.36 60.14, 67.07 60.4, -0.05 61.35 M142.77 60.22 C100.18 60.5, 59.34 60.77, 0.14 59.56 M1.39 58.27 C-1.77 36.36, -1.65 17.04, -0.49 -1.58 M-0.4 61 C0.13 44.68, -0.42 29.34, -0.04 0.57" stroke="#000000" stroke-width="1" fill="none"></path></g><g transform="translate(400.4921875 454.088884090037) rotate(0 57 12.5)"><text x="57" y="18" font-family="Virgil, Segoe UI Emoji" font-size="20px" fill="#000000" text-anchor="middle" style="white-space: pre;" direction="ltr">Select user</text></g><g stroke-linecap="round" transform="translate(831.4375 429.780290340037) rotate(0 71 30)"><path d="M-1.49 -0.13 C55.68 -0.4, 108.5 -1.65, 143.29 -0.51 M-0.35 -0.21 C48.5 1.63, 97.38 -0.07, 142.47 0.38 M140.81 -0.26 C142.61 21.65, 142.98 42.48, 141.56 58.66 M142.85 -0.07 C142.41 14.94, 142.21 29.73, 141.45 60.23 M143.05 58.24 C90.17 60.95, 40.51 61.79, -1.89 61.6 M142.96 59.53 C112.72 58.28, 82.49 58.17, 0.57 60.21 M-0.4 59 C1.2 41.74, 0.75 28.43, -1.72 -0.1 M-0.84 60.43 C-1.25 36, -0.56 12.53, -0.81 -0.98" stroke="#000000" stroke-width="1" fill="none"></path></g><g transform="translate(845.4375 447.280290340037) rotate(0 57 12.5)"><text x="57" y="18" font-family="Virgil, Segoe UI Emoji" font-size="20px" fill="#000000" text-anchor="middle" style="white-space: pre;" direction="ltr">Select user</text></g><g stroke-linecap="round" transform="translate(394.80078125 639.409196590037) rotate(0 71 30)"><path d="M-0.7 1.65 C44.46 1.58, 90.08 2.26, 140.25 -0.79 M0.58 0.19 C47.81 -0.25, 95.68 -1.17, 141.93 -0.26 M140.88 -0.63 C140.74 15.83, 142.26 29.52, 141.64 60 M142 -0.36 C142.42 14.16, 142.73 29.29, 141.68 60.41 M142.22 59 C91.13 59.27, 38.29 57.84, -0.39 58.63 M142.61 60.21 C98.11 58.48, 52.98 59.18, 0.77 59.31 M1.43 59.9 C1.63 43.6, -1.15 28.21, 0.99 1.8 M-0.17 59.02 C0.36 39.66, -0.2 21.47, -0.92 0.53" stroke="#000000" stroke-width="1" fill="none"></path></g><g transform="translate(408.80078125 656.909196590037) rotate(0 57 12.5)"><text x="57" y="18" font-family="Virgil, Segoe UI Emoji" font-size="20px" fill="#000000" text-anchor="middle" style="white-space: pre;" direction="ltr">Select user</text></g><g stroke-linecap="round" transform="translate(837.6875 658.284196590037) rotate(0 71 30)"><path d="M-0.86 -0.97 C48.31 2.41, 99.93 2.32, 141.02 -1.44 M0.28 0.82 C36.36 -1.44, 70.69 -0.42, 141.34 0.29 M141.47 -1.83 C140.33 24.43, 139.61 44.32, 142.68 59.2 M141.84 0.52 C142.94 22.1, 141.5 44.52, 142.93 59.39 M141.8 58.4 C93.15 62.05, 46.4 62.37, -0.25 61.12 M141.29 60.41 C86.69 59.45, 29.75 60.19, 0.8 60.13 M0.75 58.22 C-0.44 38.28, -0.75 14.84, -0.93 -0.46 M-0.13 60.7 C1.1 39.23, 0.59 19.48, 0.74 -0.8" stroke="#000000" stroke-width="1" fill="none"></path></g><g transform="translate(851.6875 675.784196590037) rotate(0 57 12.5)"><text x="57" y="18" font-family="Virgil, Segoe UI Emoji" font-size="20px" fill="#000000" text-anchor="middle" style="white-space: pre;" direction="ltr">Select user</text></g><g stroke-linecap="round" transform="translate(389.1328125 846.045915340037) rotate(0 71 30)"><path d="M0.58 -0.51 C44.47 0.31, 90.24 -0.7, 140.25 0.13 M-0.2 -0.8 C39.15 1.18, 79.85 1.69, 142.27 -0.14 M143.63 -0.89 C141.77 20.63, 139.95 37.55, 142.34 58.04 M142.85 -0.83 C142.49 12.83, 141.21 25.61, 141.8 59.43 M143.67 61.81 C91.72 62.44, 40.83 60.05, 0.06 59.24 M141.81 59.33 C91.76 58.85, 40.48 60.01, -0.86 60.44 M1.83 61.05 C-1.05 44.94, -0.62 28.29, -1.5 1.31 M-0.23 59.54 C-0.35 36.88, -1.28 14.34, 0.26 -0.63" stroke="#000000" stroke-width="1" fill="none"></path></g><g transform="translate(403.1328125 863.545915340037) rotate(0 57 12.5)"><text x="57" y="18" font-family="Virgil, Segoe UI Emoji" font-size="20px" fill="#000000" text-anchor="middle" style="white-space: pre;" direction="ltr">Select user</text></g><g stroke-linecap="round" transform="translate(834.78125 848.069352840037) rotate(0 71 30)"><path d="M0.58 -0.38 C44.62 1.9, 91.25 -1.13, 142.29 0.5 M0.96 -0.06 C39.82 -0.96, 80.85 -1.88, 141.53 -0.53 M140.14 -1.83 C139.89 20.33, 142.41 38.61, 142.95 58.21 M142.75 -0.3 C143.16 19.17, 143.38 37.57, 141.36 60.69 M143.28 61.8 C89.26 59.62, 37.31 58.25, 0.35 58.07 M142.11 60.35 C92.34 60.06, 43.12 59.62, 0.99 59.07 M-1.29 60.76 C-1.14 43.88, 1.28 30.11, -1.08 -1.31 M-0.58 59.28 C-0.01 42.56, -0.29 23.18, -0.24 0.49" stroke="#000000" stroke-width="1" fill="none"></path></g><g transform="translate(848.78125 865.569352840037) rotate(0 57 12.5)"><text x="57" y="18" font-family="Virgil, Segoe UI Emoji" font-size="20px" fill="#000000" text-anchor="middle" style="white-space: pre;" direction="ltr">Select user</text></g><g stroke-linecap="round" transform="translate(572.83984375 268.233415340037) rotate(0 107.39453125 23.736328125)"><path d="M0.81 -0.75 C53.56 -1.6, 107.11 -1.01, 213.35 -0.5 M-0.76 -0.41 C68.46 0.93, 136.4 1.11, 215.6 -0.54 M215.46 -0.35 C216.2 10.95, 215.38 23.48, 215.77 47.74 M214.04 0.98 C214.99 13.14, 214.53 26.28, 215.31 47.84 M213.19 46.96 C141.43 46.22, 67.27 46.8, -1.69 48.46 M215.03 47.63 C141.76 47.77, 70.39 47.25, 0.06 48.32 M-0.84 48.16 C-1.61 33.8, -0.27 16.91, -1.66 0.23 M0.69 48.11 C-0.59 27.95, 0.8 10.32, 0.25 -0.47" stroke="#000000" stroke-width="1" fill="none"></path></g><g transform="translate(630.734375 279.469743465037) rotate(0 49.5 12.5)"><text x="49.5" y="18" font-family="Virgil, Segoe UI Emoji" font-size="20px" fill="#000000" text-anchor="middle" style="white-space: pre;" direction="ltr">Main page</text></g><g stroke-linecap="round" transform="translate(1607.66064453125 146.70411846503703) rotate(0 626.228515625 467.314453125)"><path d="M0.41 -0.69 C285.92 -1.3, 571.69 -0.78, 1253.25 0.01 M0.04 0.04 C495.26 -2.79, 990.4 -2.96, 1252.38 0.08 M1252.87 -0.35 C1254.42 297.74, 1253.93 594.51, 1252.36 933.98 M1252.77 0.39 C1253.31 312.52, 1252.57 625.82, 1252.71 934.74 M1252.59 934.42 C882.54 933.53, 511.78 934.11, -0.47 935.37 M1252.74 934.46 C821.73 930.24, 391.06 930.72, 0.26 934.8 M0.48 934.49 C-2.42 735.3, -2.41 534.66, 0.54 -0.04 M0.15 934.87 C-0.06 655.54, 0.09 376.88, -0.39 0.28" stroke="#000000" stroke-width="1" fill="none"></path></g><g stroke-linecap="round" transform="translate(1608.50048828125 150.48536846503703) rotate(0 623.84765625 48.705078125)"><path d="M-0.69 0.1 C252.9 -2.52, 506.79 -1.79, 1247.71 0.76 M0.04 0.21 C363.02 -0.14, 725.74 -0.51, 1247.78 0.07 M1246.83 1.47 C1247.76 33.05, 1245.68 65.35, 1246.07 98.11 M1248.66 0.87 C1246.93 29.55, 1248.01 61.72, 1247.96 97.36 M1247.48 97.43 C766.99 97.42, 287.04 97.75, 0.74 97.76 M1247.52 97.3 C820.24 100.79, 393.33 101.21, 0.17 97.06 M-0.36 97.97 C1.41 61.88, -0.98 26.51, -0.09 -0.03 M0.6 97.11 C-1.11 68.41, -0.79 38.3, 0.7 -0.5" stroke="#000000" stroke-width="1" fill="none"></path></g><g stroke-linecap="round" transform="translate(1611.17626953125 154.28614971503703) rotate(0 89.3203125 47.158203125)"><path d="M0.25 -1.18 C56.7 1.68, 115.08 1.57, 180.55 -0.18 M0.53 0.36 C64.83 -0.24, 127.95 0.03, 178.82 0.37 M180.11 0.34 C179.38 23.84, 178.89 49.53, 179.34 94.59 M179.51 -0.86 C178.38 29.4, 180.02 58.62, 178.59 95.17 M178.7 93.86 C126.32 94.84, 76.82 95.69, 0.88 95.17 M178.37 94.11 C140 94.52, 102.78 93.98, -0.86 95.03 M0.56 95.18 C0.02 69.78, 0.79 48.2, -0.03 -0.03 M-0.3 93.55 C-0.27 62.22, -1.31 31.72, -0.5 0.72" stroke="#000000" stroke-width="1" fill="none"></path></g><g transform="translate(1674.62158203125 188.16505596503703) rotate(0 23 12.5)"><text x="0" y="18" font-family="Virgil, Segoe UI Emoji" font-size="20px" fill="#000000" text-anchor="start" style="white-space: pre;" direction="ltr">Logo</text></g><g stroke-linecap="round" transform="translate(2290.45751953125 176.61036846503703) rotate(0 82.259765625 17.5)"><path d="M0.14 1.98 C51.47 1.78, 102.69 1.05, 164.7 0.2 M-0.06 -0.18 C58.21 -1.06, 116.36 -1.53, 165.04 -0.43 M162.78 -0.24 C162.95 13.77, 164.85 26.35, 166.08 36.93 M164.74 0.64 C164.49 13.48, 165.07 26.87, 164.68 34.73 M165.52 33.84 C116.51 34.24, 65.67 31.65, 1.42 34.14 M165.5 35.64 C120.13 33.5, 75.58 33.8, 0.61 34.82 M-1.53 36.36 C-0.25 23.48, -0.18 12.74, 0.73 1.2 M-0.44 34.03 C0.97 25.06, 0.99 15.82, -0.37 -0.89" stroke="#000000" stroke-width="1" fill="none"></path></g><g transform="translate(2334.21728515625 181.61036846503703) rotate(0 38.5 12.5)"><text x="38.5" y="18" font-family="Virgil, Segoe UI Emoji" font-size="20px" fill="#000000" text-anchor="middle" style="white-space: pre;" direction="ltr">Articles</text></g><g stroke-linecap="round" transform="translate(2468.67041015625 176.79396221503703) rotate(0 82.259765625 17.5)"><path d="M0.03 1.91 C50.43 -0.45, 101.39 -1.43, 165.57 0.72 M0.21 0.18 C62.16 0.01, 124.1 -0.13, 165.26 0.17 M162.89 0.69 C164.49 11.13, 165.78 23.81, 166.25 33.29 M164.78 -0.05 C165.45 6.85, 164.76 13.79, 164.55 34.77 M166.36 35.88 C132.37 32.33, 99.94 33.18, -0.55 34.59 M164.96 34.14 C122.26 35.49, 79.18 35.87, 0.28 35.43 M-0.09 34.97 C0.24 24.17, 1 13.12, -0.61 -1.53 M0.7 34.5 C0.88 23.94, -0.22 12.6, 0.45 0.4" stroke="#000000" stroke-width="1" fill="none"></path></g><g transform="translate(2521.93017578125 181.79396221503703) rotate(0 29 12.5)"><text x="29" y="18" font-family="Virgil, Segoe UI Emoji" font-size="20px" fill="#000000" text-anchor="middle" style="white-space: pre;" direction="ltr">Users</text></g><g stroke-linecap="round" transform="translate(2655.83056640625 177.12599346503703) rotate(0 82.259765625 17.5)"><path d="M-0.18 1.17 C65.8 -1.37, 132.29 -0.85, 166.03 -0.12 M0.37 -0.29 C46.86 -0.74, 93.42 -0.13, 164.65 -0.87 M164.79 0.19 C165.8 12.01, 165.97 18.45, 162.54 35.45 M165.37 -0.18 C164.77 12.48, 164.64 25.27, 163.53 35.5 M165.37 33.28 C126.15 34.86, 84.4 35.31, -0.78 36.95 M165.23 34.44 C105.27 33.4, 45.08 34.01, 0.3 34.24 M-0.03 35.71 C0.75 23.32, -0.59 7.71, 0.14 -0.89 M0.72 34.7 C-0.62 26.99, 0.21 21.16, 0.33 -0.61" stroke="#000000" stroke-width="1" fill="none"></path></g><g transform="translate(2706.09033203125 182.12599346503703) rotate(0 32 12.5)"><text x="32" y="18" font-family="Virgil, Segoe UI Emoji" font-size="20px" fill="#000000" text-anchor="middle" style="white-space: pre;" direction="ltr">Topics</text></g><g stroke-linecap="round" transform="translate(2170.54736328125 268.891618465037) rotate(0 107.39453125 23.736328125)"><path d="M-1.5 -1.74 C81.6 -0.5, 162.88 -1.71, 216.28 -0.32 M-0.2 -0.87 C68.35 -0.57, 136.63 0.33, 215.16 -0.75 M214.38 -0.78 C216.54 18.89, 215.46 33.49, 216.21 46.35 M215.22 0.3 C213.94 17.79, 214.66 34.21, 214.77 47.83 M213.45 47.6 C141.7 45.21, 71.4 46.02, 1.27 46.94 M215.14 47.76 C157.83 47.93, 102.74 48.86, 0.76 46.86 M-1.09 46.58 C1.01 32.41, 0.59 19.4, 1.86 0.34 M0.29 48.34 C0.14 31.14, 0.55 15.49, 0.28 -0.84" stroke="#000000" stroke-width="1" fill="none"></path></g><g transform="translate(2239.44189453125 280.127946590037) rotate(0 38.5 12.5)"><text x="38.5" y="18" font-family="Virgil, Segoe UI Emoji" font-size="20px" fill="#000000" text-anchor="middle" style="white-space: pre;" direction="ltr">Articles</text></g><g stroke-linecap="round"><g transform="translate(786.9765625 161.78029034003703) rotate(0 401.3898430131376 9.226917583106456)"><path d="M-0.47 -1.17 C71.52 -25.65, 297.9 -175.34, 431.85 -146.78 C565.8 -118.21, 741.42 117.42, 803.24 170.23 M1.49 0.82 C73.88 -23.98, 300.76 -176.29, 434.25 -148.38 C567.74 -120.47, 741.03 115.57, 802.45 168.28" stroke="#000000" stroke-width="1" fill="none"></path></g><g transform="translate(786.9765625 161.78029034003703) rotate(0 401.3898430131376 9.226917583106456)"><path d="M773.69 153.82 C785.2 158.79, 792.69 162.03, 803.48 166.9 M775.05 155.45 C785.7 160.16, 795.22 165.23, 802.34 167.65" stroke="#000000" stroke-width="1" fill="none"></path></g><g transform="translate(786.9765625 161.78029034003703) rotate(0 401.3898430131376 9.226917583106456)"><path d="M788.63 139.75 C795.75 148.81, 798.84 156.19, 803.48 166.9 M789.99 141.38 C795.22 151.24, 799.3 161.45, 802.34 167.65" stroke="#000000" stroke-width="1" fill="none"></path></g></g><g stroke-linecap="round" transform="translate(1617.5703125 360.018571590037) rotate(0 287.759765625 351.955078125)"><path d="M0 0.23 C229.04 -1.38, 457.97 -0.11, 574.78 0.16 M-0.19 0.3 C150.64 0.79, 301.19 0.94, 575.42 0.11 M575.56 -0.25 C574.45 244.84, 574.65 488.88, 576.26 703.82 M575.59 0.31 C575.68 172.08, 575.82 344.65, 575.24 704.25 M576.05 703.63 C436.13 702.55, 296.02 701.85, 0.14 704 M575.56 704.24 C409.35 705.28, 244.19 704.68, -0.14 703.8 M0.77 704.47 C-0.03 461.89, 0.63 219.04, -0.25 -0.25 M-0.03 704.26 C0.48 539.04, 0.56 374.53, 0.21 -0.3" stroke="#000000" stroke-width="1" fill="none"></path></g><g transform="translate(1846.60546875 384.643571590037) rotate(0 64 12.5)"><text x="0" y="18" font-family="Virgil, Segoe UI Emoji" font-size="20px" fill="#000000" text-anchor="start" style="white-space: pre;" direction="ltr">Articles list </text></g><g stroke-linecap="round" transform="translate(1626.6953125 462.991227840037) rotate(0 273.818359375 64.443359375)"><path d="M-0.51 -0.55 C167.23 -0.26, 332.79 -0.99, 547.42 0.22 M-0.32 -0.18 C204.99 2.3, 410.74 1.77, 547.82 -0.01 M548.95 -0.08 C548.52 50.78, 548.17 99.76, 548.97 128.05 M547.37 0.34 C546.63 40.33, 546.53 82.2, 546.76 128.91 M546.89 128.36 C380.13 129.49, 212.64 129.09, -0.62 129.19 M547.55 129.19 C420.05 128.06, 292.09 127.49, -0.08 128.49 M0.2 127.52 C-1.1 91.47, -0.45 54.82, 1.68 -0.68 M-0.01 128.36 C0.73 99.79, 0.91 69.93, -0.95 0.2" stroke="#000000" stroke-width="1" fill="none"></path></g><g transform="translate(1863.1328125 513.045915340037) rotate(0 40.5 12.5)"><text x="0" y="18" font-family="Virgil, Segoe UI Emoji" font-size="20px" fill="#000000" text-anchor="start" style="white-space: pre;" direction="ltr">Article 1</text></g><g stroke-linecap="round" transform="translate(1625.474609375 611.114274715037) rotate(0 273.818359375 64.443359375)"><path d="M-0.24 0.65 C202.34 -1.42, 405.23 -1.87, 548.13 -0.67 M-0.35 -0.12 C149.11 0.91, 298.59 1.38, 547.26 0.21 M546.69 0.43 C550.23 45.27, 548.33 89.53, 547.88 129.29 M548.03 -0.22 C548.77 43.44, 547.43 87.09, 547.61 129.65 M547.68 129.19 C418.05 130.74, 288.36 130.61, -0.5 129.45 M548 129.21 C385.44 128.81, 222.99 129.22, -0.21 129.09 M-1.33 129.42 C1 100.5, 0.29 72.5, -0.15 -0.81 M0.96 128.39 C0.18 78.79, -0.89 28.1, 0.07 -0.71" stroke="#000000" stroke-width="1" fill="none"></path></g><g transform="translate(1861.912109375 661.168962215037) rotate(0 45 12.5)"><text x="0" y="18" font-family="Virgil, Segoe UI Emoji" font-size="20px" fill="#000000" text-anchor="start" style="white-space: pre;" direction="ltr">Article 2</text></g><g stroke-linecap="round" transform="translate(1624.052734375 764.024430965037) rotate(0 273.818359375 64.443359375)"><path d="M-0.69 -0.1 C204.22 -0.99, 410.06 -1.6, 548.3 -0.48 M0.06 0.12 C181.78 -0.14, 363.34 -0.19, 547.93 -0.33 M548.8 0.59 C546.81 29.59, 546.54 58.53, 549.05 128.66 M548.47 -0.62 C547.2 33.44, 547.5 69.06, 547.13 127.95 M547.18 128.35 C391.12 128.91, 236.38 128.83, -0.47 128.82 M547.25 129.23 C335.13 127.68, 123.04 128.06, 0.02 129.22 M1.44 128.72 C-0.2 96.69, -0.67 66.23, -0.95 -0.19 M-0.89 129.01 C-1.9 89.23, -0.2 52.29, -0.94 0.07" stroke="#000000" stroke-width="1" fill="none"></path></g><g transform="translate(1860.490234375 814.079118465037) rotate(0 44.5 12.5)"><text x="0" y="18" font-family="Virgil, Segoe UI Emoji" font-size="20px" fill="#000000" text-anchor="start" style="white-space: pre;" direction="ltr">Article 3</text></g><g stroke-linecap="round" transform="translate(1625.595703125 911.727555965037) rotate(0 273.818359375 64.443359375)"><path d="M-0.01 -0.45 C184.23 0.4, 369.47 0.44, 547.86 -0.41 M-0.39 0.36 C196.68 0.08, 393.95 -0.02, 547.48 0.35 M548.58 1 C547.84 49.54, 544.76 97.82, 546.96 130.4 M548.18 0.37 C547.22 35.13, 548.56 69.46, 546.65 128.89 M547.39 128.7 C334.54 129.13, 120.79 129.23, 0.66 129.4 M547.84 129.29 C390.34 127.03, 233.04 126.76, 0.25 128.57 M-1.45 128.05 C-1.65 77.16, -0.22 29.52, -0.87 -0.44 M-0.21 129.34 C1.47 99.04, 1.79 71.42, -0.18 -0.31" stroke="#000000" stroke-width="1" fill="none"></path></g><g transform="translate(1862.033203125 961.782243465037) rotate(0 44 12.5)"><text x="0" y="18" font-family="Virgil, Segoe UI Emoji" font-size="20px" fill="#000000" text-anchor="start" style="white-space: pre;" direction="ltr">Article 4</text></g><g stroke-linecap="round"><g transform="translate(1947.9453125 524.0432152443705) rotate(0 245.05366210704824 -104.22274055524827)"><path d="M-0.51 -1.18 C25.82 -33.16, 79.55 -161.1, 157.44 -192.14 C235.33 -223.17, 414.79 -201.22, 466.83 -187.41 C518.87 -173.6, 469.22 -122.28, 469.67 -109.27 M1.43 0.81 C27.71 -31.51, 79.41 -162.79, 156.86 -194.04 C234.3 -225.29, 413.92 -201.02, 466.08 -186.7 C518.25 -172.38, 469.55 -121.08, 469.86 -108.12" stroke="#000000" stroke-width="1" fill="none"></path></g><g transform="translate(1947.9453125 524.0432152443705) rotate(0 245.05366210704824 -104.22274055524827)"><path d="M470 -136.89 C472.05 -130.34, 468.91 -122.91, 470 -108.47 M472.36 -137.2 C471.08 -128.54, 471.33 -119.54, 470.39 -107.59" stroke="#000000" stroke-width="1" fill="none"></path></g><g transform="translate(1947.9453125 524.0432152443705) rotate(0 245.05366210704824 -104.22274055524827)"><path d="M488.74 -128.53 C486.02 -124.2, 478.08 -118.91, 470 -108.47 M491.11 -128.85 C484.16 -122.89, 478.74 -116.41, 470.39 -107.59" stroke="#000000" stroke-width="1" fill="none"></path></g></g><g stroke-linecap="round" transform="translate(2297.53515625 360.198259090037) rotate(0 267.546875 196.634765625)"><path d="M-0.51 -0.61 C171.68 -0.97, 342.54 -0.57, 534.87 0.45 M0.4 0.4 C172.14 0.48, 343.95 0.53, 535.1 0.02 M535.34 -0.15 C534.38 105.67, 533.96 211.14, 535.81 392.43 M534.84 -0.58 C534.9 98.62, 535 196.44, 535.61 393.18 M535.16 393.36 C364.09 392.3, 193.97 391.87, -0.46 393.72 M535.37 393.36 C419.94 392.39, 304.49 393.03, 0.21 393.45 M-0.27 392.59 C-0.98 236.79, -2.09 79.39, 0.31 0.68 M0.32 392.97 C-1.37 246.56, -2.34 99.07, 0.32 0.37" stroke="#000000" stroke-width="1" fill="none"></path></g><g transform="translate(2516.85546875 382.014665340037) rotate(0 59.5 12.5)"><text x="0" y="18" font-family="Virgil, Segoe UI Emoji" font-size="20px" fill="#000000" text-anchor="start" style="white-space: pre;" direction="ltr">Article title</text></g><g stroke-linecap="round" transform="translate(2317.67578125 460.327165340037) rotate(0 240.341796875 102.974609375)"><path d="M0.37 -0.81 C132.1 -1.21, 264.88 -0.88, 481.04 0.56 M0.15 0.25 C190.56 -0.64, 381.44 -0.5, 480.57 -0.33 M481.56 -0.59 C482.12 60.96, 480 121.77, 481.03 205.05 M480.19 0.14 C483.09 76.1, 482.58 153.06, 479.95 206.02 M480.8 206.44 C323.81 204.4, 168.1 204.17, 0.45 205.88 M480.77 205.7 C354.53 206.29, 228.17 206.2, 0.21 205.85 M1.4 205.87 C1.92 160.71, 1.63 116.11, -0.15 -1.71 M-0.64 205.37 C0.16 124.7, -0.54 41.86, 0.06 -0.88" stroke="#000000" stroke-width="1" fill="none"></path></g><g transform="translate(2512.69921875 538.417009090037) rotate(0 59 12.5)"><text x="0" y="18" font-family="Virgil, Segoe UI Emoji" font-size="20px" fill="#000000" text-anchor="start" style="white-space: pre;" direction="ltr">Article body</text></g><g transform="translate(2369.9296875 696.014665340037) rotate(0 23 12.5)"><text x="0" y="18" font-family="Virgil, Segoe UI Emoji" font-size="20px" fill="#000000" text-anchor="start" style="white-space: pre;" direction="ltr">Vote</text></g><g transform="translate(2688.85546875 695.014665340037) rotate(0 41.5 12.5)"><text x="0" y="18" font-family="Virgil, Segoe UI Emoji" font-size="20px" fill="#000000" text-anchor="start" style="white-space: pre;" direction="ltr">Comment</text></g><g stroke-linecap="round" transform="translate(2334.5859375 687.260759090037) rotate(0 61.720703125 20.419921875)"><path d="M-1.89 -1.33 C38.51 -1.18, 76.37 1.3, 124.62 0.68 M0.17 0.78 C47.2 -1.23, 93.14 0.21, 122.99 -0.24 M122.63 1.65 C122.84 13.3, 122.57 24.68, 122.16 42.73 M123.98 0.75 C123.53 15.92, 123.15 32.48, 124.1 40.81 M125.37 40.98 C90.41 41.29, 58.91 38.65, 1.52 42.78 M123.33 41.36 C78.32 41.1, 34.89 40.37, -0.97 41.2 M-1.5 38.96 C1.79 29.94, -1.02 20.75, -0.64 1.25 M0.86 39.95 C0.54 28.35, 0.09 15.42, 0.34 -0.64" stroke="#000000" stroke-width="1" fill="none"></path></g><g stroke-linecap="round" transform="translate(2658.15234375 687.077165340037) rotate(0 73.583984375 19.193359375)"><path d="M0.13 0.99 C56.17 -0.7, 112.27 -1.43, 147.07 1.22 M0.63 0.63 C43.25 0.58, 86.11 1.9, 148.08 -0.44 M148.1 0.34 C146.67 13.22, 145.71 28.55, 145.22 36.85 M146.44 0.32 C147.42 12.33, 146.35 23.61, 146.41 37.8 M148.76 38.06 C91.13 37.71, 39 39.05, -1.12 37.67 M147.03 38.04 C92.97 38.42, 38.62 38.05, -0.56 38.26 M0.77 38.38 C1.12 31.48, 1.76 20.69, 1.65 -1.84 M-0.94 38.23 C-0.65 30.57, 0.31 22.2, -0.31 -0.88" stroke="#000000" stroke-width="1" fill="none"></path></g><g stroke-linecap="round" transform="translate(3066.400390625 142.83302471503703) rotate(0 626.228515625 467.314453125)"><path d="M-0.34 -0.09 C287.67 1.13, 576.41 1.42, 1253.08 0.22 M-0.15 0.01 C275.17 0.69, 550.17 1.05, 1252.41 -0.32 M1252.75 0.77 C1256.17 353.93, 1254.63 708.83, 1252.71 934.7 M1252.25 0.37 C1251.79 256.89, 1251.75 513.17, 1252.23 934.45 M1253.26 935.24 C901.03 938.29, 548.03 938.94, -0.48 934.22 M1252.76 934.78 C1000.46 931.86, 748.51 931.82, 0.14 934.87 M-0.71 933.9 C2.03 727, 1.75 518.03, 0.73 -0.75 M0.34 934.55 C3.3 664.56, 2.96 393.92, -0.17 -0.14" stroke="#000000" stroke-width="1" fill="none"></path></g><g stroke-linecap="round" transform="translate(3067.240234375 146.61427471503703) rotate(0 623.84765625 48.705078125)"><path d="M-0.09 -0.18 C432.26 2.84, 865.09 2.75, 1247.91 -0.64 M0.01 0.11 C265.02 1.97, 530.73 1.86, 1247.38 0.32 M1249.62 1.97 C1246.91 34.96, 1248.65 74.32, 1247.86 96.9 M1248.62 -0.27 C1247.55 27.4, 1246.33 55, 1247.25 97.22 M1248.31 98.01 C767.11 102.02, 287.29 101.92, -0.41 96.62 M1247.84 97.25 C966.65 100.9, 685.71 101.31, 0.24 97.1 M-1.82 98 C2.02 72.76, 0.27 50.14, -1.87 -0.21 M-0.2 98.37 C1.52 75.89, 1.08 53.71, -0.35 0.28" stroke="#000000" stroke-width="1" fill="none"></path></g><g stroke-linecap="round" transform="translate(3069.916015625 150.41505596503703) rotate(0 89.3203125 47.158203125)"><path d="M-0.45 -0.72 C50.32 0.18, 98.61 0.74, 177.03 -1.75 M0.27 -0.86 C50.04 -0.04, 99.67 -0.86, 179.43 0.78 M180.61 -0.67 C177.1 28.26, 179.62 54.55, 178.14 94.02 M178.37 0.33 C177.77 22.83, 177.59 47, 178.45 95.17 M180.13 94.05 C110.67 97.05, 43.4 94.65, -1.98 92.82 M178.24 93.96 C133.71 94.52, 90.52 95.58, -0.77 93.84 M0.59 95.9 C0.72 70.02, 2.65 44.18, -0.21 -1.56 M0.96 95.28 C-0.69 71.91, -1.23 48.1, 0.28 0.98" stroke="#000000" stroke-width="1" fill="none"></path></g><g transform="translate(3133.361328125 184.29396221503703) rotate(0 23 12.5)"><text x="0" y="18" font-family="Virgil, Segoe UI Emoji" font-size="20px" fill="#000000" text-anchor="start" style="white-space: pre;" direction="ltr">Logo</text></g><g stroke-linecap="round" transform="translate(3749.197265625 172.73927471503703) rotate(0 82.259765625 17.5)"><path d="M1.8 -0.01 C49.12 1.14, 93.5 -1.15, 164.11 -0.76 M0.14 0.02 C49.84 0.61, 100.71 2.19, 164.4 0.36 M162.64 1.07 C165.5 14.03, 164.36 27.43, 163.55 33.94 M164.14 -0.9 C163.87 13.28, 164.23 28.3, 165.27 36 M163.57 36.37 C101.42 33.75, 38.72 33.29, -1.05 36.51 M163.82 34.55 C109.42 35.01, 52.86 33.93, -0.44 34.12 M-0.11 34.84 C1.71 25.81, -0.32 18.81, -1.14 1.71 M0.12 35.53 C-0.76 24.85, -0.05 16.38, -0.02 0.63" stroke="#000000" stroke-width="1" fill="none"></path></g><g transform="translate(3792.95703125 177.73927471503703) rotate(0 38.5 12.5)"><text x="38.5" y="18" font-family="Virgil, Segoe UI Emoji" font-size="20px" fill="#000000" text-anchor="middle" style="white-space: pre;" direction="ltr">Articles</text></g><g stroke-linecap="round" transform="translate(3927.41015625 172.92286846503703) rotate(0 82.259765625 17.5)"><path d="M1.56 0.54 C41.8 -1.74, 86.41 -0.76, 164.59 0.54 M-0.12 -0.8 C36.06 0.75, 70.43 0.33, 165.48 0.98 M165.16 0.17 C163.68 9.02, 163.22 17.58, 166.36 34.46 M163.96 -0.45 C164.2 12.51, 165.14 24.31, 165.28 35.75 M163.33 33.97 C115.34 34.63, 69.07 37.64, 0.74 34.2 M164.86 35.61 C120.32 33.77, 77.22 33.37, -0.91 35.29 M1.81 33.13 C-0.19 20.16, -1.12 10.16, -0.4 1.92 M-0.42 34.65 C0.24 22.1, -0.07 7.86, 0.23 0.08" stroke="#000000" stroke-width="1" fill="none"></path></g><g transform="translate(3980.669921875 177.92286846503703) rotate(0 29 12.5)"><text x="29" y="18" font-family="Virgil, Segoe UI Emoji" font-size="20px" fill="#000000" text-anchor="middle" style="white-space: pre;" direction="ltr">Users</text></g><g stroke-linecap="round" transform="translate(4114.5703125 173.25489971503703) rotate(0 82.259765625 17.5)"><path d="M-1.61 -1.75 C48.85 -1.21, 98.61 0.1, 162.81 0.29 M0.79 0.78 C49.59 1.68, 100.37 2.3, 164.18 -0.94 M164.01 -0.3 C163.66 11.31, 166.47 24.19, 165.18 34.25 M164.33 0.85 C165.08 8.37, 165.09 15.48, 164.39 34.53 M162.54 33.5 C102.83 35.66, 43.98 33.35, -0.72 33.61 M163.75 34.52 C122.17 35.11, 79.79 36.29, 0.79 34.94 M-0.21 33.44 C-1.45 26.49, -0.72 16.47, 1.93 0.24 M0.28 35.98 C0.12 23.28, 0.38 10.38, -0.47 0.12" stroke="#000000" stroke-width="1" fill="none"></path></g><g transform="translate(4164.830078125 178.25489971503703) rotate(0 32 12.5)"><text x="32" y="18" font-family="Virgil, Segoe UI Emoji" font-size="20px" fill="#000000" text-anchor="middle" style="white-space: pre;" direction="ltr">Topics</text></g><g stroke-linecap="round" transform="translate(3286.380859375 277.258805965037) rotate(0 107.39453125 23.736328125)"><path d="M-0.36 -0.67 C70.35 2.12, 139.07 1.89, 214.83 -0.2 M-0.1 0.32 C48.13 -0.61, 94.27 -2.3, 215.26 0.28 M213.82 -1.06 C216.51 14.09, 215.33 28.52, 213 46.36 M215.54 1 C215.46 12.86, 214.57 23.75, 215.47 46.88 M213.87 48.79 C162.08 45.37, 107.44 44.85, -0.79 48.07 M214.4 46.7 C136.53 46.83, 60.57 46.52, -0.07 48.27 M-1.14 49.18 C-0.35 39.59, 1.98 28.11, 1.06 -0.85 M-0.02 48.1 C0.1 34.99, -0.6 22.47, 0.33 0.79" stroke="#000000" stroke-width="1" fill="none"></path></g><g transform="translate(3334.775390625 288.495134090037) rotate(0 59 12.5)"><text x="59" y="18" font-family="Virgil, Segoe UI Emoji" font-size="20px" fill="#000000" text-anchor="middle" style="white-space: pre;" direction="ltr">Topics page</text></g><g stroke-linecap="round"><g transform="translate(2760.5625 160.65529034003703) rotate(0 380.2305027151724 23.034599157556272)"><path d="M-0.15 0.52 C119.48 -9.27, 603.71 -76.5, 717.12 -58.77 C830.54 -41.03, 686.48 79.17, 680.34 106.92 M-1.69 -0.25 C118.37 -9.84, 605.81 -75.26, 719.29 -57.25 C832.78 -39.24, 685.74 80.12, 679.21 107.8" stroke="#000000" stroke-width="1" fill="none"></path></g><g transform="translate(2760.5625 160.65529034003703) rotate(0 380.2305027151724 23.034599157556272)"><path d="M688.64 77.33 C685.63 84.85, 682.23 91.67, 679.18 107.67 M688.38 79.55 C685.86 86.18, 684.41 93.7, 679.74 108.52" stroke="#000000" stroke-width="1" fill="none"></path></g><g transform="translate(2760.5625 160.65529034003703) rotate(0 380.2305027151724 23.034599157556272)"><path d="M705.11 89.56 C698.12 94.1, 690.72 97.95, 679.18 107.67 M704.86 91.78 C698.22 95.43, 692.72 99.93, 679.74 108.52" stroke="#000000" stroke-width="1" fill="none"></path></g></g><g stroke-linecap="round" transform="translate(3113.37890625 397.905290340037) rotate(0 136.744140625 64.626953125)"><path d="M-0.21 -1.11 C87.05 2.16, 175.93 2.58, 273.09 1.49 M-0.22 0 C57.86 0.86, 117 1.85, 273.11 -0.18 M274.63 1.14 C273.85 43.5, 275.73 87.36, 272.68 127.5 M273.98 -0.2 C273.82 29.27, 272.95 57.44, 273.78 128.89 M273.76 128.86 C197.51 130.92, 120.44 129.02, -0.16 129.14 M273.94 128.77 C182.81 129.8, 90.98 131.14, 0.33 128.92 M0.15 130.16 C1.95 87.18, 0.56 41.19, 0.3 0.75 M0.64 129.28 C-1.21 93.47, 0.16 57.94, 0.13 0.37" stroke="#000000" stroke-width="1" fill="none"></path></g><g transform="translate(3215.623046875 450.032243465037) rotate(0 34.5 12.5)"><text x="34.5" y="18" font-family="Virgil, Segoe UI Emoji" font-size="20px" fill="#000000" text-anchor="middle" style="white-space: pre;" direction="ltr">Topic 1</text></g><g stroke-linecap="round" transform="translate(3116.158203125 572.231462215037) rotate(0 136.744140625 64.626953125)"><path d="M-0.23 -0.97 C71.88 0.28, 143.4 1.05, 272.58 1.17 M0.73 0.39 C75.26 0.88, 150.17 0.52, 273.21 0.35 M275.06 1.52 C272.76 26.74, 275.09 55.21, 273.62 131.09 M274.36 -0.12 C273.08 46.53, 273.64 93.41, 272.91 128.59 M273.35 129.84 C191.79 129.81, 107.39 128.37, 0.71 130.72 M273.31 129.35 C205.97 129, 138.18 128.13, -0.7 128.93 M1.32 128.97 C-1.6 87.61, 0.04 44.61, -0.98 -1.98 M-0.88 130.19 C-0.54 89.81, 0.15 50.65, -0.49 -0.99" stroke="#000000" stroke-width="1" fill="none"></path></g><g transform="translate(3213.90234375 624.358415340037) rotate(0 39 12.5)"><text x="39" y="18" font-family="Virgil, Segoe UI Emoji" font-size="20px" fill="#000000" text-anchor="middle" style="white-space: pre;" direction="ltr">Topic 2</text></g><g stroke-linecap="round" transform="translate(3113.185546875 764.793962215037) rotate(0 136.744140625 64.626953125)"><path d="M1.29 -0.91 C75.29 1.32, 146.82 1.09, 274.95 0.78 M-0.36 -0.27 C101.06 -2.59, 201.34 -2.39, 274.1 0.59 M271.52 0.13 C274.13 36.08, 272.06 68.12, 275.23 129.01 M274.2 -0.58 C273.05 35.45, 272.77 71.06, 273.4 129.63 M272.07 129.97 C166.7 128.82, 56.03 129.1, -0.35 129.44 M273.12 128.56 C190.87 128.85, 108.96 128.83, 0.51 129.14 M1.68 128.28 C-2.96 100.24, -0.3 71.62, -1.77 1.87 M0.95 128.77 C-1.42 92.21, 0.03 53.97, 0.98 -0.93" stroke="#000000" stroke-width="1" fill="none"></path></g><g transform="translate(3211.4296875 816.920915340037) rotate(0 38.5 12.5)"><text x="38.5" y="18" font-family="Virgil, Segoe UI Emoji" font-size="20px" fill="#000000" text-anchor="middle" style="white-space: pre;" direction="ltr">Topic 3</text></g><g stroke-linecap="round"><g transform="translate(3300.26171875 470.475602840037) rotate(0 165.69764470085488 15.413759131763982)"><path d="M-0.8 0.29 C54.49 5.5, 277.05 24.92, 332.2 30.2 M0.98 -0.6 C56.16 4.86, 276.58 26.29, 331.82 31.43" stroke="#000000" stroke-width="1" fill="none"></path></g><g transform="translate(3300.26171875 470.475602840037) rotate(0 165.69764470085488 15.413759131763982)"><path d="M303.26 40.76 C311.67 34.84, 324.45 33.11, 330.89 29.63 M303.25 39.22 C311.96 37.42, 318.89 35.75, 331.35 31.01" stroke="#000000" stroke-width="1" fill="none"></path></g><g transform="translate(3300.26171875 470.475602840037) rotate(0 165.69764470085488 15.413759131763982)"><path d="M305.22 20.33 C312.78 21.31, 324.9 26.49, 330.89 29.63 M305.21 18.79 C313.39 22.84, 319.76 27.03, 331.35 31.01" stroke="#000000" stroke-width="1" fill="none"></path></g></g><g stroke-linecap="round" transform="translate(3640.44140625 318.670915340037) rotate(0 322.318359375 267.955078125)"><path d="M0.11 -0.26 C150.88 0.47, 300.49 1.74, 644.64 -0.76 M0.15 -0.14 C148.26 -2.41, 296.45 -2.6, 644.59 -0.13 M644.35 -0.08 C646.26 205.29, 645.83 411.05, 644.03 535.5 M644.79 -0.01 C646.81 122.71, 646.4 245.82, 644.39 535.61 M644.45 535.13 C435.77 535.28, 226.15 535.3, -0.54 535.63 M644.63 536.17 C409.21 536.39, 174.83 536.52, 0.06 535.57 M-0.21 535.61 C-0.43 393.56, -1.72 250.62, -0.73 -0.01 M0.13 535.83 C-1.19 353.56, -1.34 171.05, -0.28 0.18" stroke="#000000" stroke-width="1" fill="none"></path></g><g stroke-linecap="round" transform="translate(3698.9638671875 347.054704402537) rotate(0 273.818359375 64.443359375)"><path d="M-0.44 0.34 C134.72 0.96, 270.24 2.27, 547.82 0.55 M-0.27 0.21 C163.64 -2.24, 326.5 -2.24, 547.6 -0.13 M545.73 -0.34 C547.67 27.23, 548.39 56.76, 547.03 128.52 M546.7 0.16 C549.61 41.28, 548.17 83.35, 548.25 127.98 M547.34 128.79 C331.02 127.89, 113.1 128.14, -0.12 128.51 M547.84 129.06 C358.71 127.38, 169.41 127.41, -0.33 129.07 M-0.44 130.19 C-0.5 90.13, 1.77 52.89, 0.67 -1.39 M0.16 128.57 C-0.51 87.06, -1.74 46.83, -0.29 0.56" stroke="#000000" stroke-width="1" fill="none"></path></g><g stroke-linecap="round" transform="translate(3697.8369140625 507.689470027537) rotate(0 273.818359375 64.443359375)"><path d="M0.34 -0.5 C212.06 1.02, 426.22 1.39, 548.19 -0.01 M0.21 0.2 C167.14 1.13, 334.59 1.47, 547.51 -0.33 M547.3 0.58 C547.14 34.5, 548.59 65.8, 547.27 129.43 M547.8 0.86 C546.2 49.23, 546.12 100.26, 546.73 129.86 M547.54 129.69 C377.63 128.38, 207.86 127.96, -0.38 129.25 M547.81 129.18 C354.09 130.21, 160.46 129.68, 0.18 128.9 M1.31 128.06 C-0.02 94.92, 1.73 58.73, -1.39 0.44 M-0.32 129.23 C-0.18 80.79, 1.1 34.18, 0.56 0.62" stroke="#000000" stroke-width="1" fill="none"></path></g><g stroke-linecap="round" transform="translate(3695.3642578125 683.095720027537) rotate(0 273.818359375 64.443359375)"><path d="M-0.5 -0.78 C120.64 -0.4, 241.85 -0.38, 547.62 0.05 M0.2 -0.3 C212.43 -1.43, 425.57 -1.26, 547.31 -0.17 M548.21 -0.86 C547.71 42.87, 545.8 84.17, 548.18 130.62 M548.49 -0.87 C545.85 32.08, 547.05 65.16, 548.61 128.99 M548.44 128.91 C409.05 128.9, 269.73 128.25, 0.36 129.32 M547.93 129 C424.05 129.97, 299.74 130.01, 0.01 128.79 M-0.82 129.12 C1.73 89.68, 0.95 45.13, 0.44 1.33 M0.34 128.58 C-1.09 92.43, -0.49 54.56, 0.62 0.47" stroke="#000000" stroke-width="1" fill="none"></path></g><g transform="translate(3932.2822265625 398.998063777537) rotate(0 40.5 12.5)"><text x="40.5" y="18" font-family="Virgil, Segoe UI Emoji" font-size="20px" fill="#000000" text-anchor="middle" style="white-space: pre;" direction="ltr">Article 1</text></g><g transform="translate(3926.6552734375 559.632829402537) rotate(0 45 12.5)"><text x="45" y="18" font-family="Virgil, Segoe UI Emoji" font-size="20px" fill="#000000" text-anchor="middle" style="white-space: pre;" direction="ltr">Article 2</text></g><g transform="translate(3924.6826171875 741.289079402537) rotate(0 44.5 12.5)"><text x="44.5" y="18" font-family="Virgil, Segoe UI Emoji" font-size="20px" fill="#000000" text-anchor="middle" style="white-space: pre;" direction="ltr">Article 3</text></g><g stroke-linecap="round" transform="translate(3637.91796875 875.733415340037) rotate(0 329 88)"><path d="M0.17 -0.33 C155.38 -3.16, 310.54 -3, 657.26 0.69 M-0.11 0.01 C139.86 -2.24, 279.49 -1.91, 658.25 0.16 M656.78 0.63 C655.66 41.9, 659.12 85.14, 658.36 177.7 M658.54 -0.14 C655.35 38.25, 656.85 78.06, 657.26 176.01 M657.65 176.56 C495.37 176.08, 331.54 176.02, 0.3 176.72 M658.06 176.22 C486.9 178.55, 314.64 178.04, -0.3 175.61 M-0.06 174.52 C-2.21 123.53, -1.47 71.83, -0.24 -0.01 M-0.04 176.96 C2.21 125.34, 1.8 75.67, 0.65 0.73" stroke="#000000" stroke-width="1" fill="none"></path></g><g transform="translate(3919.91796875 951.233415340037) rotate(0 47 12.5)"><text x="47" y="18" font-family="Virgil, Segoe UI Emoji" font-size="20px" fill="#000000" text-anchor="middle" style="white-space: pre;" direction="ltr">Comments</text></g><g stroke-linecap="round"><g transform="translate(2689.782884581983 723.264665340037) rotate(0 -48.48301477914265 26.708531684544937)"><path d="M0.29 -0.43 C-15.55 8.94, -80.24 45.96, -96.04 55.12 M-1.01 -1.7 C-16.97 7.41, -81.64 43.71, -97.26 53.3" stroke="#000000" stroke-width="1" fill="none"></path></g><g transform="translate(2689.782884581983 723.264665340037) rotate(0 -48.48301477914265 26.708531684544937)"><path d="M-78.8 29.38 C-81.54 37.07, -86.76 41.27, -96.95 51.61 M-78.04 30.31 C-83.03 35.86, -89.04 42.33, -96.72 54.06" stroke="#000000" stroke-width="1" fill="none"></path></g><g transform="translate(2689.782884581983 723.264665340037) rotate(0 -48.48301477914265 26.708531684544937)"><path d="M-68.46 47.1 C-73.31 50.93, -80.8 51.24, -96.95 51.61 M-67.7 48.03 C-75.6 48.64, -84.45 50.25, -96.72 54.06" stroke="#000000" stroke-width="1" fill="none"></path></g></g><g stroke-linecap="round" transform="translate(2301.421875 782.959977840037) rotate(0 260.88671875 67.1484375)"><path d="M0.78 -0.14 C150.4 0.81, 301.58 1.5, 521.43 -0.74 M0.38 -0.08 C128.97 -0.6, 258.06 -0.26, 522.02 0.27 M520.08 0.03 C518.79 43.06, 521.08 89.9, 521.35 133.1 M522.57 -0.04 C520.63 40.24, 521.1 78.71, 522.2 133.44 M521.59 133.89 C323.63 132.03, 126.41 132.46, -0.34 134.29 M522.08 134.59 C397.06 134.63, 271.37 134.56, -0.1 134.44 M-0.92 134.13 C0.44 89.48, -2.6 45.78, 1.75 1.49 M-0.32 135.27 C0.01 97, -0.75 57.77, -0.15 -0.23" stroke="#000000" stroke-width="1" fill="none"></path></g><g transform="translate(2479.5078125 807.151384090037) rotate(0 88 12.5)"><text x="0" y="18" font-family="Virgil, Segoe UI Emoji" font-size="20px" fill="#000000" text-anchor="start" style="white-space: pre;" direction="ltr">Add comment here</text></g><g stroke-linecap="round" transform="translate(2467.97265625 847.456071590037) rotate(0 93.888671875 22.369140625)"><path d="M-0.21 -0.35 C56.9 1.79, 111.18 0.17, 186.59 -1.14 M0.31 0.13 C41.28 1.14, 81.57 2.21, 188.66 -0.39 M187.89 0.83 C186.85 14.27, 187.44 30.86, 187.74 45.31 M187.49 0.95 C188.58 15.19, 187.09 32.66, 187.01 45.56 M186.04 42.96 C139.82 41.95, 93.44 42.29, 0.13 44.25 M187.71 44.23 C132.59 46.35, 78.89 45.94, -0.24 44.15 M0.87 43.35 C1.14 34.25, -1.14 25.22, 0.06 -1.61 M-0.75 45.23 C0.79 34.44, -0.48 22.02, -0.47 -0.21" stroke="#000000" stroke-width="1" fill="none"></path></g><g transform="translate(2537.861328125 857.325212215037) rotate(0 24 12.5)"><text x="24" y="18" font-family="Virgil, Segoe UI Emoji" font-size="20px" fill="#000000" text-anchor="middle" style="white-space: pre;" direction="ltr">Post</text></g><g stroke-linecap="round"><g transform="translate(3698.85546875 419.811540340037) rotate(0 -125.65719984595717 270.4794703185231)"><path d="M-0.46 0.08 C-42.29 36.54, -238.49 127.39, -251.22 217.69 C-263.96 307.99, -105.86 487.99, -76.87 541.88 M1.5 -0.92 C-40.45 35.74, -238.82 128.54, -252.03 218.72 C-265.24 308.9, -106.88 486.24, -77.77 540.16" stroke="#000000" stroke-width="1" fill="none"></path></g><g transform="translate(3698.85546875 419.811540340037) rotate(0 -125.65719984595717 270.4794703185231)"><path d="M-102.15 523.32 C-97.18 527.4, -86.72 531.55, -77.24 538.52 M-101.43 523.38 C-96.23 526.42, -91.43 529.45, -77.46 539.37" stroke="#000000" stroke-width="1" fill="none"></path></g><g transform="translate(3698.85546875 419.811540340037) rotate(0 -125.65719984595717 270.4794703185231)"><path d="M-85.3 511.6 C-85.15 518.9, -79.41 526.33, -77.24 538.52 M-84.58 511.66 C-83.17 517.41, -82.12 523.05, -77.46 539.37" stroke="#000000" stroke-width="1" fill="none"></path></g></g><g stroke-linecap="round" transform="translate(4912.03515625 145.07325909003703) rotate(0 342.087890625 53.09375)"><path d="M-0.34 -0.2 C260.04 0.46, 518.61 -0.33, 684.74 -0.08 M0.23 0.11 C253.42 0.1, 507.37 -0.52, 684.37 0.28 M685.59 1.78 C683.26 26.91, 683.2 50.61, 684.47 106.16 M683.62 -0.17 C684.38 40.13, 684.04 78.28, 684.33 107.16 M683.73 105.81 C415.83 107.8, 146.3 108.13, -0.51 106.8 M683.81 106.12 C543 108.01, 402.37 107.85, 0.09 106.02 M1.33 105.44 C-0.93 80.97, -0.97 53.82, -1.96 0.57 M-0.03 105.37 C0.18 68.57, -0.2 28.38, 0.47 0.98" stroke="#000000" stroke-width="1" fill="none"></path></g><g transform="translate(5211.1328125 189.54591534003703) rotate(0 23.5 35.5)"><text x="0" y="25.5" font-family="Virgil, Segoe UI Emoji" font-size="28px" fill="#000000" text-anchor="start" style="white-space: pre;" direction="ltr">App</text><text x="0" y="61" font-family="Virgil, Segoe UI Emoji" font-size="28px" fill="#000000" text-anchor="start" style="white-space: pre;" direction="ltr"></text></g><g stroke-linecap="round"><g transform="translate(5209.3046875 266.795915340037) rotate(0 -141.03329343982023 37.052453050985946)"><path d="M0.8 -0.45 C-46.23 12.02, -235.58 62.02, -282.87 74.29 M-0.24 -1.73 C-46.84 10.99, -233.93 63.23, -280.64 75.83" stroke="#000000" stroke-width="1" fill="none"></path></g><g transform="translate(5209.3046875 266.795915340037) rotate(0 -141.03329343982023 37.052453050985946)"><path d="M-256.92 56.93 C-262.19 61.28, -270.05 65.11, -280.07 77.07 M-256.99 59.36 C-264.39 65.37, -275.14 71.71, -279.65 76.06" stroke="#000000" stroke-width="1" fill="none"></path></g><g transform="translate(5209.3046875 266.795915340037) rotate(0 -141.03329343982023 37.052453050985946)"><path d="M-251.48 76.71 C-257.98 76.28, -267.17 75.31, -280.07 77.07 M-251.55 79.15 C-260.91 77.87, -273.66 76.93, -279.65 76.06" stroke="#000000" stroke-width="1" fill="none"></path></g></g><g stroke-linecap="round" transform="translate(4650.87890625 359.545915340037) rotate(0 211.41015625 42.431640625)"><path d="M-0.4 -0.1 C125.12 1.25, 250.21 1.31, 423.44 0.99 M0.13 0.01 C114.13 -0.51, 228.54 -1.01, 423.23 0.34 M422.72 -0.71 C423.97 24.47, 423.05 46.96, 422.92 83.63 M423.18 -0.52 C422.3 19.52, 421.68 40.69, 423.25 84.09 M422.67 85.89 C298.02 84.85, 174.13 84.72, 0.8 85.43 M422.91 84.37 C326.72 82.61, 231.94 82.71, 0.17 84.73 M0.67 85.35 C0.08 59.01, 1.38 29.73, -1.08 0.73 M0.82 85.62 C-1.58 67.64, -1.42 50.25, -0.65 -0.25" stroke="#000000" stroke-width="1" fill="none"></path></g><g transform="translate(4773.359375 377.393571590037) rotate(0 101 18)"><text x="0" y="25" font-family="Virgil, Segoe UI Emoji" font-size="28px" fill="#000000" text-anchor="start" style="white-space: pre;" direction="ltr">Navigation bar</text></g><g stroke-linecap="round"><g transform="translate(4735.783869654368 448.381852840037) rotate(0 -68.83855293586203 35.59359918525445)"><path d="M0.21 0.8 C-22.65 12.44, -114.1 58.3, -137.27 69.75 M-1.13 0.18 C-24.1 11.98, -115.34 59.3, -137.89 71.01" stroke="#000000" stroke-width="1" fill="none"></path></g><g transform="translate(4735.783869654368 448.381852840037) rotate(0 -68.83855293586203 35.59359918525445)"><path d="M-116.25 49.96 C-124.47 53.93, -130.86 63.56, -137.35 71.44 M-117.58 48.88 C-124.56 56.21, -129.84 62.8, -137.14 70.03" stroke="#000000" stroke-width="1" fill="none"></path></g><g transform="translate(4735.783869654368 448.381852840037) rotate(0 -68.83855293586203 35.59359918525445)"><path d="M-106.8 68.18 C-117.79 66.79, -126.98 71.05, -137.35 71.44 M-108.13 67.1 C-118.23 68.53, -126.57 69.22, -137.14 70.03" stroke="#000000" stroke-width="1" fill="none"></path></g></g><g transform="translate(4428.4765625 559.143571590037) rotate(0 108 18)"><text x="0" y="25" font-family="Virgil, Segoe UI Emoji" font-size="28px" fill="#000000" text-anchor="start" style="white-space: pre;" direction="ltr">Link to articles</text></g><g stroke-linecap="round" transform="translate(4393.46875 536.034196590037) rotate(0 152.1171875 38.0078125)"><path d="M1.08 -0.67 C109.49 -0.69, 219.26 -1, 304.31 -0.4 M0.39 0.53 C74.45 1.26, 146.93 1.46, 304.88 -0.05 M302.87 0.26 C302.4 26.58, 304.61 51.55, 305.73 74.82 M304.12 -0.77 C304.21 25.11, 305 49.32, 303.41 75.63 M303.93 76.68 C238.13 75.27, 170.23 75.61, 0.85 76.65 M304.78 75.5 C217.31 75.85, 130.79 75.17, 0.34 76.11 M1.75 75 C0.46 46.9, 1.25 16.87, 0.99 -0.01 M-0.18 75.48 C-0.38 46.5, 0.14 16.42, -0.24 0.04" stroke="#000000" stroke-width="1" fill="none"></path></g><g transform="translate(4740.48828125 557.530290340037) rotate(0 94.5 18)"><text x="0" y="25" font-family="Virgil, Segoe UI Emoji" font-size="28px" fill="#000000" text-anchor="start" style="white-space: pre;" direction="ltr">Link to Users</text></g><g stroke-linecap="round" transform="translate(4705.48046875 534.420915340037) rotate(0 152.1171875 38.0078125)"><path d="M-0.91 -0.13 C93.69 1.01, 187.12 -1.15, 302.9 1.14 M-0.56 -0.26 C74.66 1.07, 150.6 0.69, 304.83 0.53 M305.04 -0.06 C304.11 28.57, 302.86 55.41, 304.46 76.79 M304.76 -0.89 C304.39 28.71, 304.58 54.91, 303.26 76.4 M304.11 75.13 C238.92 75.91, 175.1 75.5, 1.16 75.7 M303.76 76.33 C190.43 75.46, 76.75 75.91, 0.1 75.86 M-1.68 75.98 C0.3 47.82, 0.35 20.57, 1.4 0.74 M0.53 75.9 C-0.24 46.49, -0.77 14.96, -0.25 -0.71" stroke="#000000" stroke-width="1" fill="none"></path></g><g transform="translate(5056.7109375 554.686540340037) rotate(0 99 18)"><text x="0" y="25" font-family="Virgil, Segoe UI Emoji" font-size="28px" fill="#000000" text-anchor="start" style="white-space: pre;" direction="ltr">Link to Topics</text></g><g stroke-linecap="round" transform="translate(5021.703125 531.577165340037) rotate(0 152.1171875 38.0078125)"><path d="M0.97 0.61 C71.11 -1.99, 145.74 -1.42, 304.92 -0.26 M0.68 0.19 C67.99 2.26, 135.91 2.05, 304.72 -0.47 M306.07 -1.88 C306.15 26.1, 304.99 53.1, 302.66 74.04 M305.06 0.95 C302.7 25.84, 303.94 52.74, 303.66 75.82 M304.56 76.06 C215.48 76.07, 126.58 75.98, -0.24 75.52 M304.44 76.1 C233.61 76.07, 161.51 76.46, 0.24 75.98 M-0.16 76.62 C0.62 60.99, 0.76 45.13, 0.61 1.9 M0.77 75.47 C-0.36 48.95, -0.62 21.46, -0.56 -0.69" stroke="#000000" stroke-width="1" fill="none"></path></g><g stroke-linecap="round"><g transform="translate(4862.8515625 451.807634090037) rotate(0 -1.3471134687215454 36.14372009404008)"><path d="M-0.71 -0.38 C-1.32 11.65, -2.58 60.37, -2.68 72.9 M1.13 -1.62 C0.23 10.46, -3.38 61.48, -3.82 73.91" stroke="#000000" stroke-width="1" fill="none"></path></g><g transform="translate(4862.8515625 451.807634090037) rotate(0 -1.3471134687215454 36.14372009404008)"><path d="M-13.11 44.59 C-10.66 57.99, -4.13 68.66, -2.69 73.59 M-12.51 46.17 C-9.05 55.63, -6.79 64.52, -4.11 73.29" stroke="#000000" stroke-width="1" fill="none"></path></g><g transform="translate(4862.8515625 451.807634090037) rotate(0 -1.3471134687215454 36.14372009404008)"><path d="M7.37 45.74 C1.93 58.57, 0.59 68.8, -2.69 73.59 M7.98 47.32 C4.72 56.3, 0.26 64.81, -4.11 73.29" stroke="#000000" stroke-width="1" fill="none"></path></g></g><g stroke-linecap="round"><g transform="translate(5013.953125 449.627946590037) rotate(0 72.72105012722295 32.46999922237353)"><path d="M-0.28 0.55 C24.15 11.46, 121.31 54.25, 145.72 65.15 M1.77 -0.21 C26.18 10.35, 121.05 52.48, 145.09 63.21" stroke="#000000" stroke-width="1" fill="none"></path></g><g transform="translate(5013.953125 449.627946590037) rotate(0 72.72105012722295 32.46999922237353)"><path d="M116.08 62.13 C122.56 63.51, 130.68 63.47, 143.34 64.96 M114.54 60.9 C124.39 60.83, 130.78 62.92, 145.64 62.96" stroke="#000000" stroke-width="1" fill="none"></path></g><g transform="translate(5013.953125 449.627946590037) rotate(0 72.72105012722295 32.46999922237353)"><path d="M124.42 43.38 C128.96 49.01, 135.18 53.23, 143.34 64.96 M122.88 42.15 C130.51 47.29, 134.59 54.55, 145.64 62.96" stroke="#000000" stroke-width="1" fill="none"></path></g></g><g stroke-linecap="round"><g transform="translate(4509.511491526356 622.2099778400373) rotate(0 1.1152265225746305 36.019520457293766)"><path d="M0.89 0.55 C0.95 12.48, 0.09 58.92, 0.07 70.82 M-0.1 -0.21 C0.36 11.98, 2.32 60.54, 2.33 72.25" stroke="#000000" stroke-width="1" fill="none"></path></g><g transform="translate(4509.511491526356 622.2099778400373) rotate(0 1.1152265225746305 36.019520457293766)"><path d="M-7.69 42.86 C-6.09 51.71, -1.23 61.04, 3.55 71.69 M-7.79 43.36 C-5.28 49.86, -4.87 56.62, 2.14 71.45" stroke="#000000" stroke-width="1" fill="none"></path></g><g transform="translate(4509.511491526356 622.2099778400373) rotate(0 1.1152265225746305 36.019520457293766)"><path d="M12.82 42.37 C8.75 51.51, 7.94 60.98, 3.55 71.69 M12.72 42.87 C10.87 49.39, 6.92 56.25, 2.14 71.45" stroke="#000000" stroke-width="1" fill="none"></path></g></g><g stroke-linecap="round" transform="translate(4404.90234375 706.174821590037) rotate(0 109.41015625 28.818359375)"><path d="M-0.22 -0.9 C42.84 2.67, 89.26 0.65, 219.55 0.14 M-0.85 0.32 C53.44 0.91, 108.16 0.58, 218.93 -0.08 M218.28 0.49 C216.4 17.58, 219.09 36.08, 217.46 59.55 M218.28 0.83 C218.16 21.39, 217.53 44.09, 218.08 58.06 M219.12 58.4 C151.5 57.89, 86.99 55.05, 0.89 56.56 M218.41 57.2 C141.87 56.57, 63.34 55.65, 0.68 57.59 M-1.37 58.62 C-1.3 42.97, -0.48 27.31, 0.19 1.37 M0.88 58.49 C-0.77 45.98, 0.25 33.13, 0.41 0.75" stroke="#000000" stroke-width="1" fill="none"></path></g><g transform="translate(4427.8125 716.993180965037) rotate(0 86.5 18)"><text x="86.5" y="25" font-family="Virgil, Segoe UI Emoji" font-size="28px" fill="#000000" text-anchor="middle" style="white-space: pre;" direction="ltr">/api/articles</text></g><g stroke-linecap="round"><g transform="translate(4854.7304746077025 616.553727840037) rotate(0 -1.074252381288261 39.69880403600632)"><path d="M-1.05 0.62 C-1.36 13.89, -1.69 66.4, -2.11 79.49 M0.6 -0.09 C0.2 12.79, -2.45 64.05, -2.75 77.47" stroke="#000000" stroke-width="1" fill="none"></path></g><g transform="translate(4854.7304746077025 616.553727840037) rotate(0 -1.074252381288261 39.69880403600632)"><path d="M-10.88 49.89 C-9.03 55.54, -6.98 66.4, -4 75.56 M-11.76 48.03 C-9.73 54.52, -8.75 61.17, -2.39 78.25" stroke="#000000" stroke-width="1" fill="none"></path></g><g transform="translate(4854.7304746077025 616.553727840037) rotate(0 -1.074252381288261 39.69880403600632)"><path d="M9.63 50.67 C5.7 55.93, 1.96 66.56, -4 75.56 M8.75 48.81 C6.33 55.14, 2.86 61.62, -2.39 78.25" stroke="#000000" stroke-width="1" fill="none"></path></g></g><g stroke-linecap="round" transform="translate(4742.21875 704.696305965037) rotate(0 109.41015625 28.818359375)"><path d="M-0.32 -0.34 C79.55 0.52, 155.94 -1.38, 217.09 0.3 M0.75 0.57 C88.01 -2.34, 174.96 -1.85, 218 0.08 M220.52 1.6 C219.69 21.48, 219.71 42.22, 219.31 56.99 M218.19 -0.18 C218.16 22.06, 219.01 44.2, 217.99 58.3 M218.99 57.31 C158.14 59.37, 94.95 58.9, 0.31 57.5 M218.54 57.75 C173.23 56.48, 126.44 56.51, 0.18 57.14 M-0.99 57.27 C-0.14 42.79, -0.74 28.65, 0.96 -1.96 M-0.26 57.02 C0.74 45.13, -0.21 31.95, 0.41 -0.25" stroke="#000000" stroke-width="1" fill="none"></path></g><g transform="translate(4780.62890625 715.514665340037) rotate(0 71 18)"><text x="71" y="25" font-family="Virgil, Segoe UI Emoji" font-size="28px" fill="#000000" text-anchor="middle" style="white-space: pre;" direction="ltr">/api/users</text></g><g stroke-linecap="round" transform="translate(5068.16015625 709.610368465037) rotate(0 109.41015625 28.818359375)"><path d="M-1.32 0.53 C47.12 0.55, 95.42 0.92, 220.41 1.24 M-0.07 -0.08 C82.35 1.49, 165.83 1.06, 218.19 0.35 M218.68 1.15 C219.57 20.92, 220.93 40.84, 218.25 59.02 M219.1 0.24 C220.14 20.64, 220 42.38, 219.58 57.78 M217.81 58.11 C156.12 59.23, 95.73 60.48, -1.47 57.99 M218.94 56.91 C161.08 57.72, 104.52 59.02, 0.78 57.98 M-0.93 58.63 C-1.07 42.76, 0.45 30.77, 0.55 -1.06 M0.92 56.68 C-0.44 45.63, -0.85 32.31, -0.39 -0.08" stroke="#000000" stroke-width="1" fill="none"></path></g><g transform="translate(5103.0703125 720.428727840037) rotate(0 74.5 18)"><text x="74.5" y="25" font-family="Virgil, Segoe UI Emoji" font-size="28px" fill="#000000" text-anchor="middle" style="white-space: pre;" direction="ltr">/api/topics</text></g><g stroke-linecap="round"><g transform="translate(5171.610281952275 616.159196590037) rotate(0 1.1607779512223715 45.906568790888514)"><path d="M-1.02 -0.2 C-0.31 15.4, 2.64 77.66, 3.34 93.17 M0.65 -1.36 C1.38 13.96, 2.6 76.14, 2.97 91.5" stroke="#000000" stroke-width="1" fill="none"></path></g><g transform="translate(5171.610281952275 616.159196590037) rotate(0 1.1607779512223715 45.906568790888514)"><path d="M-8.25 65.38 C-4.15 71.44, -2.22 75.23, 2.81 91.31 M-7.7 62.82 C-4.28 71.87, -1.41 78.33, 2.9 92.07" stroke="#000000" stroke-width="1" fill="none"></path></g><g transform="translate(5171.610281952275 616.159196590037) rotate(0 1.1607779512223715 45.906568790888514)"><path d="M12.26 64.92 C11.77 70.91, 9.11 74.8, 2.81 91.31 M12.82 62.37 C10.51 71.73, 7.65 78.31, 2.9 92.07" stroke="#000000" stroke-width="1" fill="none"></path></g></g><g stroke-linecap="round"><g transform="translate(5523.107837869674 255.95607159003703) rotate(0 157.5784646029606 70.48248069576925)"><path d="M0.58 0.4 C53.04 23.97, 263.28 117.97, 315.74 141.4 M-0.58 -0.44 C51.64 22.78, 262.3 115.8, 314.78 139.6" stroke="#000000" stroke-width="1" fill="none"></path></g><g transform="translate(5523.107837869674 255.95607159003703) rotate(0 157.5784646029606 70.48248069576925)"><path d="M285.52 137.45 C297.24 137.38, 307.9 136.97, 312.9 140.29 M285.55 136.52 C292.21 137.66, 300.48 138.46, 314.05 139.23" stroke="#000000" stroke-width="1" fill="none"></path></g><g transform="translate(5523.107837869674 255.95607159003703) rotate(0 157.5784646029606 70.48248069576925)"><path d="M293.89 118.71 C302.43 125.8, 309.91 132.51, 312.9 140.29 M293.92 117.78 C298.59 123.57, 304.76 129.07, 314.05 139.23" stroke="#000000" stroke-width="1" fill="none"></path></g></g><g stroke-linecap="round" transform="translate(5693.94921875 408.983415340037) rotate(0 168.201171875 34.7265625)"><path d="M-1.19 0.48 C77.37 -1.91, 152.54 -1, 336.67 -0.37 M-0.45 -0.61 C131.14 -0.04, 262.94 0.45, 336.67 -0.65 M335.14 1.18 C335.26 26.76, 335.81 51, 335.42 69.35 M335.84 0.17 C335.79 18.83, 335.52 39.51, 336.52 68.56 M336.63 68.37 C254.97 66.92, 173.05 67.81, -0.88 69.65 M336.52 69.08 C213.86 70.33, 90.87 69.94, 0.14 69.84 M-0.08 69.53 C-0.64 47.94, 2.08 26.16, 0.9 -1.48 M0.32 69.48 C-0.86 47.16, 0.27 25.12, -0.16 0" stroke="#000000" stroke-width="1" fill="none"></path></g><g transform="translate(5794.828125 427.112321590037) rotate(0 53 18)"><text x="0" y="25" font-family="Virgil, Segoe UI Emoji" font-size="28px" fill="#000000" text-anchor="start" style="white-space: pre;" direction="ltr">Articles</text></g><g stroke-linecap="round"><g transform="translate(6037.31640625 446.780290340037) rotate(0 70.03964431576424 0.1181101018935351)"><path d="M0.05 -0.79 C23.63 -0.7, 117.85 0.34, 141.47 0.51 M-1.39 1.41 C22.08 1.17, 116.96 -0.63, 140.76 -1.17" stroke="#000000" stroke-width="1" fill="none"></path></g><g transform="translate(6037.31640625 446.780290340037) rotate(0 70.03964431576424 0.1181101018935351)"><path d="M111.46 10.43 C122.5 7.68, 130.32 1.74, 141.06 -1.44 M111.83 9.25 C120.69 6.06, 128.12 3.65, 140.08 -1.45" stroke="#000000" stroke-width="1" fill="none"></path></g><g transform="translate(6037.31640625 446.780290340037) rotate(0 70.03964431576424 0.1181101018935351)"><path d="M111.05 -10.09 C122.2 -6.74, 130.14 -6.59, 141.06 -1.44 M111.41 -11.27 C120.45 -8.77, 128 -5.48, 140.08 -1.45" stroke="#000000" stroke-width="1" fill="none"></path></g></g><g stroke-linecap="round" transform="translate(6192.09765625 411.346696590037) rotate(0 122.486328125 31.369140625)"><path d="M1.4 1.61 C51.12 -0.65, 104.94 -0.78, 243.54 -0.46 M0.64 0.34 C68.6 -0.86, 138.1 -1.19, 245.77 -0.24 M246.51 -0.94 C246.21 16.65, 246.87 33.12, 243.13 63.89 M244.17 -0.68 C245.94 21.51, 245.42 43.85, 245.71 62.03 M244.98 63.67 C161.13 60.69, 73.79 60.86, -0.84 62.7 M244.32 62.55 C155.91 61.45, 67.3 61, 0.44 62.14 M-0.77 62.65 C-1.34 43.6, 1.62 23.91, -0.08 1.27 M-0.14 62.73 C-1.38 39.82, 0.44 17.87, -0.42 -0.41" stroke="#000000" stroke-width="1" fill="none"></path></g><g transform="translate(6229.583984375 424.715837215037) rotate(0 85 18)"><text x="85" y="25" font-family="Virgil, Segoe UI Emoji" font-size="28px" fill="#000000" text-anchor="middle" style="white-space: pre;" direction="ltr">Article Card</text></g><g stroke-linecap="round"><g transform="translate(5521.49609375 257.733415340037) rotate(0 79.79977538935827 178.98482422836128)"><path d="M0.98 -0.53 C4.41 41.81, -5.29 194.82, 21.14 254.44 C47.57 314.06, 136.84 340.15, 159.56 357.21 M0.04 1.81 C3.3 44.27, -6.12 196.24, 20.43 255.68 C46.98 315.13, 136.57 341.51, 159.37 358.5" stroke="#000000" stroke-width="1" fill="none"></path></g><g transform="translate(5521.49609375 257.733415340037) rotate(0 79.79977538935827 178.98482422836128)"><path d="M128.76 355.19 C139.12 357.44, 150.37 355.36, 158.55 356.66 M129.72 354.84 C136.05 356.26, 143.38 357.58, 159.63 358.61" stroke="#000000" stroke-width="1" fill="none"></path></g><g transform="translate(5521.49609375 257.733415340037) rotate(0 79.79977538935827 178.98482422836128)"><path d="M138.33 337.04 C145.39 345.71, 153.3 349.98, 158.55 356.66 M139.29 336.68 C143.07 342.53, 148.03 348.34, 159.63 358.61" stroke="#000000" stroke-width="1" fill="none"></path></g></g><g stroke-linecap="round" transform="translate(5685.7734375 399.116227840037) rotate(0 422.837890625 56.041015625)"><path d="M-0.31 -0.55 C221.69 3.39, 444.4 2.28, 846.12 -0.58 M-0.29 0.02 C195.35 1.85, 390.29 1.65, 845.52 -0.08 M847.33 1.58 C845.31 43.43, 844.7 82.41, 847.55 114 M845.2 0.75 C844.43 37.06, 844.87 73.55, 845.31 111.13 M845.63 112.79 C602.04 113.1, 359.39 114.35, 0.44 112.7 M845.35 112.29 C606.81 109.51, 368.15 109.53, 0.32 112.32 M-1.81 111.35 C1.42 79.09, -1.15 46.76, 1.8 0.47 M-0.46 111.42 C0.56 73.03, -0.84 33.56, 0.19 0.95" stroke="#000000" stroke-width="1" fill="none"></path></g><g stroke-linecap="round" transform="translate(5693.173828125 552.985368465037) rotate(0 422.837890625 56.041015625)"><path d="M-0.17 0.47 C333.97 0.09, 668.95 -0.08, 845.67 -0.8 M-0.01 0.32 C197.48 -1.38, 395.98 -1.49, 845.67 -0.38 M843.7 0.98 C846.75 31.68, 845.65 64.65, 845.36 112.06 M845.13 -0.99 C846.68 26.9, 845.04 54.82, 846.35 112.58 M845.39 111.44 C516.7 113.07, 189.33 113.23, -0.66 112.62 M845.86 112.04 C651.62 112.66, 457.01 112.89, 0.02 112.33 M-1.23 110.23 C1.36 70.2, 1.04 26.5, 0.67 0.28 M-0.05 111.96 C0.24 81.57, 0.6 51.4, 0.01 0.25" stroke="#000000" stroke-width="1" fill="none"></path></g><g stroke-linecap="round" transform="translate(5717.263671875 570.061540340037) rotate(0 168.5 36.5)"><path d="M-0.44 -1 C114.24 0.38, 227.41 -0.61, 338.07 1.02 M0.45 -0.43 C87.98 -1.27, 175.37 -1.6, 337.65 0.32 M338.21 -1.17 C336.75 26.27, 334.48 56.64, 337.35 71.21 M337.78 0.53 C337.86 18.88, 337.07 39.74, 336.75 72.66 M337.91 72.42 C265.96 72.1, 196.43 72.28, -1.16 72.83 M337.1 72.69 C258.08 71.63, 179.91 71.16, -0.51 72.76 M-1.63 71.76 C1.31 53.87, 0.95 39.27, -1.7 0.78 M0 72.14 C0.34 50.58, -0.94 27.83, 0.69 0.54" stroke="#000000" stroke-width="1" fill="none"></path></g><g stroke-linecap="round" transform="translate(6162.943359375 571.499040340037) rotate(0 168.201171875 34.7265625)"><path d="M0.77 -0.83 C89.76 0.86, 180.97 -0.73, 335.4 0.56 M-0.33 -0.59 C122.63 0.66, 246.93 0.56, 335.89 0.31 M334.71 -1.96 C336.72 25.39, 334.21 49.49, 336.54 67.66 M335.5 0.02 C336.95 25.99, 336.43 51.54, 335.64 69.42 M335.58 68.61 C212.09 66.31, 88.88 66.58, 0.48 68.66 M336.37 70.01 C230.11 68.64, 124.57 68.77, -0.54 69.51 M-1.32 69.81 C2.32 52.57, 1.22 39.21, 0.63 0.62 M-0.04 68.75 C0.17 49.34, 1.14 28.67, 0.39 0.51" stroke="#000000" stroke-width="1" fill="none"></path></g><g transform="translate(5812.763671875 588.561540340037) rotate(0 73 18)"><text x="73" y="25" font-family="Virgil, Segoe UI Emoji" font-size="28px" fill="#000000" text-anchor="middle" style="white-space: pre;" direction="ltr">User List </text></g><g stroke-linecap="round"><g transform="translate(6053.6015625 600.620134090037) rotate(0 54.09738393984708 4.144243483617856)"><path d="M0.94 0.18 C18.95 1.34, 90.4 6.46, 108.23 8.15 M-0.03 -0.78 C17.87 0.99, 89.72 7.51, 107.6 9.07" stroke="#000000" stroke-width="1" fill="none"></path></g><g transform="translate(6053.6015625 600.620134090037) rotate(0 54.09738393984708 4.144243483617856)"><path d="M78.9 17.81 C85.54 14.63, 98.18 11.61, 109.3 10.73 M78.68 16.18 C85.02 13.97, 93.8 13.49, 108.28 9.65" stroke="#000000" stroke-width="1" fill="none"></path></g><g transform="translate(6053.6015625 600.620134090037) rotate(0 54.09738393984708 4.144243483617856)"><path d="M80.73 -2.63 C87 0.53, 99.07 3.84, 109.3 10.73 M80.5 -4.26 C86.53 -1.36, 94.86 3.24, 108.28 9.65" stroke="#000000" stroke-width="1" fill="none"></path></g></g><g transform="translate(6271.1328125 598.545915340037) rotate(0 71.5 18)"><text x="0" y="25" font-family="Virgil, Segoe UI Emoji" font-size="28px" fill="#000000" text-anchor="start" style="white-space: pre;" direction="ltr">User Card</text></g><g stroke-linecap="round" transform="translate(5700.576171875 707.586930965037) rotate(0 486.044921875 56.041015625)"><path d="M0.21 0.67 C349.3 0.2, 698.13 -0.27, 971.99 0.33 M-0.34 -0.29 C353.74 0.41, 707.47 0.34, 971.75 -0.23 M973.71 0.67 C971.74 38.91, 972.62 79.56, 974.02 111.66 M971.16 -0.72 C971.38 35, 971.17 68.77, 971.95 113.02 M972.26 112.08 C694.78 113.59, 417.25 113.81, 0.58 111.77 M972.44 111.87 C698.47 109.54, 425.07 109.43, -0.35 111.87 M1.28 113.27 C-0.48 67.87, 1.69 21.99, 0.11 0.72 M-0.43 112.9 C0 79.98, 1.42 47.35, -0.24 0.54" stroke="#000000" stroke-width="1" fill="none"></path></g><g stroke-linecap="round" transform="translate(5724.666015625 724.709977840037) rotate(0 168.5 36.5)"><path d="M1.12 0.43 C128.22 -0.5, 254.51 -0.75, 337.56 0.86 M-0.48 0.08 C106.53 2.08, 212.72 1.37, 336.62 0.42 M337.67 0.23 C335.61 19.23, 335.54 38.19, 336.58 73.2 M336.28 -0.08 C337.14 17.49, 336.18 35.43, 337.94 72.85 M336.99 72.8 C240.74 72.72, 145.21 74.46, -0.52 72.75 M336.64 72.87 C233.72 75.12, 129.8 74.42, -0.36 73.64 M1.19 71.9 C0.63 56.21, -0.91 37.39, 0.72 -0.24 M0.82 72.02 C-0.4 57.9, -0.73 41.65, 0.54 0.07" stroke="#000000" stroke-width="1" fill="none"></path></g><g transform="translate(5814.666015625 743.209977840037) rotate(0 78.5 18)"><text x="78.5" y="25" font-family="Virgil, Segoe UI Emoji" font-size="28px" fill="#000000" text-anchor="middle" style="white-space: pre;" direction="ltr">Topics List</text></g><g stroke-linecap="round"><g transform="translate(6064.34765625 764.303727840037) rotate(0 66.86988256611858 0.18561911752442484)"><path d="M-0.19 -0.87 C22.56 -0.79, 112.71 0.65, 135.49 0.97 M-1.75 1.28 C20.91 0.95, 111.43 -0.53, 134.4 -0.91" stroke="#000000" stroke-width="1" fill="none"></path></g><g transform="translate(6064.34765625 764.303727840037) rotate(0 66.86988256611858 0.18561911752442484)"><path d="M104.92 9.35 C113.13 8.73, 119.3 4.11, 135.23 -2.46 M107.18 10.29 C113.76 6.16, 121.26 4.8, 134 -1.81" stroke="#000000" stroke-width="1" fill="none"></path></g><g transform="translate(6064.34765625 764.303727840037) rotate(0 66.86988256611858 0.18561911752442484)"><path d="M104.59 -11.17 C112.95 -7.37, 119.19 -7.56, 135.23 -2.46 M106.85 -10.23 C113.5 -8.82, 121.09 -4.64, 134 -1.81" stroke="#000000" stroke-width="1" fill="none"></path></g></g><g transform="translate(6222.61328125 744.010759090037) rotate(0 192.5 18)"><text x="0" y="25" font-family="Virgil, Segoe UI Emoji" font-size="28px" fill="#000000" text-anchor="start" style="white-space: pre;" direction="ltr">Article list &gt; topic selected</text></g><g stroke-linecap="round" transform="translate(6210.80859375 721.006852840037) rotate(0 211.931640625 36.986328125)"><path d="M0.4 -0.66 C147.63 1.77, 296.1 0.72, 423.68 0.73 M-0.04 -0.19 C128.7 0.87, 256.85 1.44, 423.52 -0.33 M425.69 -0.94 C426.15 22.05, 424.03 42.2, 422.33 75.31 M422.96 -0.12 C424.25 28.35, 424.57 57.08, 423.37 73.65 M424.45 74.2 C300.37 76.8, 178.4 77.09, 0.81 74.44 M423.6 73.7 C267.31 72.76, 111.07 72.39, 0.31 74.24 M-0.2 73.37 C1.1 45.94, 0.21 22.03, -0.44 1.82 M-0.82 73.98 C-1.03 48.13, 0.54 19.69, -0.59 -0.04" stroke="#000000" stroke-width="1" fill="none"></path></g><g stroke-linecap="round"><g transform="translate(5513.828125 256.417009090037) rotate(0 52.88797211971087 347.85257469825433)"><path d="M0.11 -0.58 C-9.51 61.69, -84.98 256.85, -56.85 372.99 C-28.72 489.13, 131.14 642.43, 168.87 696.29 M-1.29 1.73 C-10.58 64.25, -82.73 259.08, -54.46 374.52 C-26.18 489.96, 131.5 641.15, 168.36 694.39" stroke="#000000" stroke-width="1" fill="none"></path></g><g transform="translate(5513.828125 256.417009090037) rotate(0 52.88797211971087 347.85257469825433)"><path d="M141.45 678.3 C151.95 685.7, 163.01 692.33, 169.54 694.5 M141.75 680.14 C150.59 683.44, 157.48 687.79, 168.52 694.39" stroke="#000000" stroke-width="1" fill="none"></path></g><g transform="translate(5513.828125 256.417009090037) rotate(0 52.88797211971087 347.85257469825433)"><path d="M157.21 665.16 C161.79 677.44, 167 688.96, 169.54 694.5 M157.51 666.99 C161.9 674.02, 164.23 682.19, 168.52 694.39" stroke="#000000" stroke-width="1" fill="none"></path></g></g><g stroke-linecap="round" transform="translate(5692.783203125 886.493180965037) rotate(0 486.044921875 56.041015625)"><path d="M-0.68 0.32 C354.33 -3.79, 709.27 -3.96, 972.07 -0.16 M0.39 0.05 C255 1.72, 510.48 2.05, 972.3 0.12 M970.59 -0.09 C972.9 40.61, 970.89 82.4, 974.05 112.59 M973.09 0.64 C970.81 39.74, 970.81 78.89, 971.76 112.4 M972.47 112.02 C761.74 109.02, 552.42 108.04, 0.68 111.95 M972.22 112.29 C603.6 110.54, 234.9 110.73, -0.28 112.01 M1.61 110.28 C0.36 85.98, 1.35 59.91, -1.64 1.16 M-0.74 112.2 C-0.63 77.06, -1.69 43.8, -0.7 -0.04" stroke="#000000" stroke-width="1" fill="none"></path></g><g stroke-linecap="round" transform="translate(5716.873046875 903.616227840037) rotate(0 168.5 36.5)"><path d="M0.54 -0.08 C108.19 2.8, 216.07 1.9, 336.73 -0.5 M0.08 -0.37 C109.53 -2.13, 219.84 -1.85, 337.2 0.44 M336.91 0.29 C335.93 23.56, 336.75 52.54, 337.51 73.96 M337.64 -0.86 C338.29 18.31, 338.42 38.01, 337.32 72.16 M336.89 72.43 C264.94 74.64, 190.04 75.2, -0.23 74.06 M337.36 73.08 C267.35 73.54, 198.32 73.25, -0.12 72.5 M-1.8 73.15 C-1.05 53.63, -1.78 30.35, 1.16 0.13 M0.12 73.1 C-1.33 45.38, -0.24 18.98, -0.04 -0.31" stroke="#000000" stroke-width="1" fill="none"></path></g><g transform="translate(5786.373046875 922.116227840037) rotate(0 99 18)"><text x="99" y="25" font-family="Virgil, Segoe UI Emoji" font-size="28px" fill="#000000" text-anchor="middle" style="white-space: pre;" direction="ltr">Comments List</text></g><g stroke-linecap="round"><g transform="translate(6056.5546875 943.209977840037) rotate(0 67.48032534771619 0.36255434414374577)"><path d="M-0.07 0.03 C22.85 0, 113.9 0.26, 136.53 0.3 M-1.57 -1 C21.35 -0.89, 113.23 1.31, 135.99 1.72" stroke="#000000" stroke-width="1" fill="none"></path></g><g transform="translate(6056.5546875 943.209977840037) rotate(0 67.48032534771619 0.36255434414374577)"><path d="M107.64 12.67 C113.28 9.28, 119.33 6.51, 136.5 0.77 M107.24 11.5 C119.35 8.23, 130.46 4.52, 136.45 0.74" stroke="#000000" stroke-width="1" fill="none"></path></g><g transform="translate(6056.5546875 943.209977840037) rotate(0 67.48032534771619 0.36255434414374577)"><path d="M108.07 -7.85 C113.7 -6.84, 119.66 -5.21, 136.5 0.77 M107.68 -9.02 C119.63 -4.13, 130.57 0.31, 136.45 0.74" stroke="#000000" stroke-width="1" fill="none"></path></g></g><g stroke-linecap="round" transform="translate(6236.66015625 914.252946590037) rotate(0 144.900390625 26.70703125)"><path d="M0.05 -0.43 C80.56 -0.95, 159.01 1.09, 290.63 0.91 M-0.36 -0.16 C108.68 -1.28, 216.51 -1.59, 290.26 -0.74 M289.24 -0.78 C290.11 10.51, 290 21.6, 289.57 52.41 M290.56 0.62 C289.72 15.42, 290.01 31.32, 289.83 53.61 M290.28 54.5 C191.64 53.83, 91.02 53.99, -0.87 52.86 M289.99 53.54 C206.51 54.28, 121.82 53.51, -0.48 53.78 M-0.44 51.67 C-0.15 38.78, -0.15 25.9, 0.23 1.97 M0.32 54.19 C-0.67 41.73, -0.51 32.09, -0.01 -0.99" stroke="#000000" stroke-width="1" fill="none"></path></g><g transform="translate(6284.560546875 922.959977840037) rotate(0 97 18)"><text x="97" y="25" font-family="Virgil, Segoe UI Emoji" font-size="28px" fill="#000000" text-anchor="middle" style="white-space: pre;" direction="ltr">Comment Card</text></g></svg>